<svg width="20" height="20" viewBox="0 0 20 20" fill="none" xmlns="http://www.w3.org/2000/svg">
<path d="M10 1.66667C14.595 1.66667 18.3333 5.405 18.3333 10C18.3333 14.595 14.595 18.3333 10 18.3333C5.405 18.3333 1.66667 14.595 1.66667 10C1.66667 5.405 5.405 1.66667 10 1.66667ZM10 0C4.4775 0 0 4.4775 0 10C0 15.5225 4.4775 20 10 20C15.5225 20 20 15.5225 20 10C20 4.4775 15.5225 0 10 0ZM8.33333 6.66667C8.33333 7.13083 7.96083 7.50667 7.5 7.50667C7.03917 7.50667 6.66667 7.13167 6.66667 6.66667C6.66667 6.2025 7.03917 5.82667 7.5 5.82667C7.96083 5.82667 8.33333 6.20333 8.33333 6.66667ZM8.33333 8.33333H6.66667V13.3333H8.33333V8.33333ZM10.8333 8.33333H9.16667V13.3333H10.8333V10.9492C10.8333 9.51417 12.5017 9.38167 12.5017 10.9492V13.3333H14.1667V10.5342C14.1667 7.7975 11.56 7.8975 10.8333 9.24417V8.33333Z" fill="#343536"/>
</svg>
