<svg width="20" height="20" viewBox="0 0 20 20" fill="none" xmlns="http://www.w3.org/2000/svg">
<path d="M10 1.66667C14.595 1.66667 18.3333 5.405 18.3333 10C18.3333 14.595 14.595 18.3333 10 18.3333C5.405 18.3333 1.66667 14.595 1.66667 10C1.66667 5.405 5.405 1.66667 10 1.66667ZM10 0C4.4775 0 0 4.4775 0 10C0 15.5225 4.4775 20 10 20C15.5225 20 20 15.5225 20 10C20 4.4775 15.5225 0 10 0ZM8.33333 8.33333H6.66667V10H8.33333V15H10.8333V10H12.35L12.5 8.33333H10.8333V7.63917C10.8333 7.24083 10.9133 7.08333 11.2983 7.08333H12.5V5H10.4967C8.99833 5 8.33333 5.66 8.33333 6.92333V8.33333Z" fill="#343536"/>
</svg>
