<svg width="20" height="20" viewBox="0 0 20 20" fill="none" xmlns="http://www.w3.org/2000/svg">
<path d="M10 1.66667C14.595 1.66667 18.3333 5.405 18.3333 10C18.3333 14.595 14.595 18.3333 10 18.3333C5.405 18.3333 1.66667 14.595 1.66667 10C1.66667 5.405 5.405 1.66667 10 1.66667ZM10 0C4.4775 0 0 4.4775 0 10C0 15.5225 4.4775 20 10 20C15.5225 20 20 15.5225 20 10C20 4.4775 15.5225 0 10 0ZM15.4167 7.315C15.0492 7.47833 14.6533 7.58833 14.2383 7.63833C14.6625 7.38417 14.9867 6.9825 15.1408 6.50333C14.7442 6.73833 14.305 6.90917 13.8375 7.00083C13.4642 6.60167 12.93 6.3525 12.3408 6.3525C11.0158 6.3525 10.0425 7.58833 10.3417 8.87167C8.6375 8.78583 7.125 7.96917 6.11333 6.72833C5.57583 7.65 5.835 8.85667 6.74833 9.4675C6.4125 9.45667 6.09667 9.36417 5.82 9.21083C5.7975 10.1608 6.47917 11.05 7.46583 11.2483C7.1775 11.3267 6.86083 11.345 6.53917 11.2833C6.8 12.0983 7.55917 12.6908 8.45583 12.7075C7.59167 13.3842 6.50583 13.6867 5.41667 13.5583C6.325 14.1408 7.4025 14.48 8.56083 14.48C12.3708 14.48 14.5225 11.2625 14.3925 8.37667C14.7942 8.08833 15.1417 7.72667 15.4167 7.315Z" fill="#343536"/>
</svg>
