<?xml version="1.0" encoding="utf-8"?>
<svg xmlns="http://www.w3.org/2000/svg">
	<symbol id="home" viewBox="0 0 28 24" fill="none">
		<svg viewBox="0 0 28 24" fill="none" xmlns="http://www.w3.org/2000/svg">
			<path d="M14.0003 4.25073L20.667 10.2507V20.6641H18.0003V12.6641H10.0003V20.6641H7.33366V10.2507L14.0003 4.25073ZM14.0003 0.664062L0.666992 12.6641H4.66699V23.3307H12.667V15.3307H15.3337V23.3307H23.3337V12.6641H27.3337L14.0003 0.664062Z" fill="white" />
		</svg>
	</symbol>
	<symbol id="rozie_white_icon" viewBox="0 0 22 22" fill="none">
		<svg viewBox="0 0 22 22" fill="none" xmlns="http://www.w3.org/2000/svg">
			<g clip-path="url(#clip0_11474_1559)">
				<path d="M21.3742 16.1804C21.1799 16.8733 20.7644 17.4838 20.1911 17.9189C19.6178 18.3539 18.9181 18.5898 18.1984 18.5905C17.9326 18.5914 17.6677 18.5588 17.4101 18.4936C16.9783 18.405 16.574 18.2144 16.2308 17.9379C15.9161 17.7035 15.6458 17.4146 15.4328 17.085C15.3747 17.0042 15.3165 16.9202 15.2584 16.8297L13.475 13.9964C12.4767 12.381 11.3524 11.6379 10.2087 11.3633C9.03357 11.7624 7.77664 11.8579 6.55469 11.6411L10.1538 17.7957C13.1519 22.8551 21.245 22.0345 21.4485 16.0059C21.4259 16.0705 21.4001 16.1222 21.3742 16.1804Z" fill="url(#paint0_linear_11474_1559)" />
				<path d="M0.82959 4.40565V12.9381C0.82959 16.1204 3.93759 17.3643 5.76944 17.3643V3.49457C5.21979 3.304 4.64211 3.20681 4.06036 3.20703C2.87447 3.20582 1.72773 3.63127 0.82959 4.40565Z" fill="url(#paint1_linear_11474_1559)" />
				<path d="M10.1987 11.363C11.0897 11.0648 11.8723 10.5091 12.4474 9.76608C13.0224 9.02306 13.3642 8.12615 13.4294 7.18883C13.5328 3.17945 10.5573 0.824219 6.9679 0.824219C4.43497 0.824219 1.9279 2.27806 0.852051 4.37806C1.75019 3.60368 2.89694 3.17824 4.08282 3.17945C4.66457 3.17923 5.24225 3.27642 5.7919 3.46699C7.5042 4.07114 8.71897 5.60253 8.69959 7.80268C8.67376 8.56245 8.46642 9.30499 8.09489 9.96823C7.72337 10.6315 7.19846 11.1961 6.56405 11.615C7.77757 11.8368 9.02737 11.7501 10.1987 11.363Z" fill="white" />
				<path d="M18.1982 17.4081C18.6167 17.4081 19.0259 17.284 19.3739 17.0515C19.7219 16.8189 19.9931 16.4884 20.1533 16.1018C20.3134 15.7151 20.3553 15.2896 20.2737 14.8791C20.192 14.4686 19.9905 14.0915 19.6945 13.7956C19.3986 13.4996 19.0215 13.2981 18.611 13.2164C18.2005 13.1348 17.775 13.1767 17.3884 13.3369C17.0017 13.497 16.6712 13.7683 16.4387 14.1163C16.2061 14.4643 16.082 14.8734 16.082 15.2919C16.082 15.5698 16.1368 15.845 16.2431 16.1018C16.3495 16.3585 16.5053 16.5918 16.7018 16.7883C16.8983 16.9848 17.1316 17.1407 17.3884 17.247C17.6451 17.3534 17.9203 17.4081 18.1982 17.4081Z" fill="white" />
			</g>
			<defs>
				<linearGradient id="paint0_linear_11474_1559" x1="12.9484" y1="18.7165" x2="14.9191" y2="9.99344" gradientUnits="userSpaceOnUse">
					<stop offset="0.34" stop-color="white" />
					<stop offset="0.4" stop-color="#F6F6F6" />
					<stop offset="0.48" stop-color="#DEDDDD" />
					<stop offset="0.59" stop-color="#B6B5B5" />
					<stop offset="0.72" stop-color="#7F7D7E" />
					<stop offset="0.86" stop-color="#3A3738" />
					<stop offset="0.9" stop-color="#231F20" />
				</linearGradient>
				<linearGradient id="paint1_linear_11474_1559" x1="4.59344" y1="14.1852" x2="0.958821" y2="-1.88143" gradientUnits="userSpaceOnUse">
					<stop offset="0.25" stop-color="white" />
					<stop offset="0.31" stop-color="#F6F6F6" />
					<stop offset="0.41" stop-color="#DEDEDE" />
					<stop offset="0.53" stop-color="#B7B6B6" />
					<stop offset="0.66" stop-color="#817F7F" />
					<stop offset="0.82" stop-color="#3C393A" />
					<stop offset="0.87" stop-color="#231F20" />
				</linearGradient>
				<clipPath id="clip0_11474_1559">
					<rect width="21" height="21" fill="white" transform="translate(0.5 0.5)" />
				</clipPath>
			</defs>
		</svg>
	</symbol>
	<symbol id="thumbs_up" viewBox="0 0 30 26" fill="none">
		<svg viewBox="0 0 30 26" fill="none" xmlns="http://www.w3.org/2000/svg">
			<path d="M16.2655 0.669802L8.8788 8.05647C8.38547 8.5498 8.10547 9.2298 8.10547 9.93647V23.2565C8.10547 24.7231 9.30547 25.9231 10.7721 25.9231H22.7721C23.8388 25.9231 24.7988 25.2831 25.2255 24.3098L29.5721 14.1631C30.6921 11.5231 28.7588 8.5898 25.8921 8.5898H18.3588L19.6255 2.48314C19.7588 1.81647 19.5588 1.13647 19.0788 0.656469C18.2921 -0.116864 17.0388 -0.116864 16.2655 0.669802ZM2.77214 25.9231C4.2388 25.9231 5.4388 24.7231 5.4388 23.2565V12.5898C5.4388 11.1231 4.2388 9.92314 2.77214 9.92314C1.30547 9.92314 0.105469 11.1231 0.105469 12.5898V23.2565C0.105469 24.7231 1.30547 25.9231 2.77214 25.9231Z" fill="white" />
		</svg>
	</symbol>
	<symbol id="thumbs_down" viewBox="0 0 30 26" fill="none">
		<svg viewBox="0 0 30 26" fill="none" xmlns="http://www.w3.org/2000/svg">
			<path d="M13.7308 25.3315L21.1042 17.9448C21.5975 17.4515 21.8775 16.7715 21.8775 16.0648V2.74479C21.8775 1.27813 20.6775 0.078125 19.2108 0.078125H7.22415C6.15748 0.078125 5.19748 0.718125 4.78415 1.69146L0.437483 11.8381C-0.69585 14.4781 1.23748 17.4115 4.10415 17.4115H11.6375L10.3708 23.5181C10.2375 24.1848 10.4375 24.8648 10.9175 25.3448C11.7042 26.1181 12.9575 26.1181 13.7308 25.3315ZM27.2241 0.078125C25.7575 0.078125 24.5575 1.27813 24.5575 2.74479V13.4115C24.5575 14.8781 25.7575 16.0781 27.2241 16.0781C28.6908 16.0781 29.8908 14.8781 29.8908 13.4115V2.74479C29.8908 1.27813 28.6908 0.078125 27.2241 0.078125Z" fill="white" />
		</svg>
	</symbol>
	<symbol id="star" viewBox="0 0 28 27" fill="none">
		<svg viewBox="0 0 28 27" fill="none" xmlns="http://www.w3.org/2000/svg">
			<path d="M14.0025 21.1188L22.1053 26.3127L20.1724 16.8838L27.62 10.7759L18.0588 9.70409L14.5521 0.766173L10.5682 9.50181L0.963048 10.0561L8.07015 16.557L5.63126 25.8678L14.0025 21.1188Z" fill="white" />
		</svg>
	</symbol>
	<symbol id="comment" viewBox="0 0 28 28" fill="none">
		<svg viewBox="0 0 28 28" fill="none" xmlns="http://www.w3.org/2000/svg">
			<path d="M24.667 20.8907L23.107 19.3307H3.33366V3.33073H24.667V20.8907ZM24.667 0.664062H3.33366C1.86699 0.664062 0.666992 1.86406 0.666992 3.33073V19.3307C0.666992 20.7974 1.86699 21.9974 3.33366 21.9974H22.0003L27.3337 27.3307V3.33073C27.3337 1.86406 26.1337 0.664062 24.667 0.664062Z" fill="white" />
		</svg>
	</symbol>
	<symbol id="close" viewBox="0 0 12 12" fill="none">
		<svg viewBox="0 0 12 12" fill="none" xmlns="http://www.w3.org/2000/svg">
			<path d="M10.763 1.26565L1.13181 10.8343" stroke="#475258" stroke-linecap="round" stroke-linejoin="round" />
			<path d="M1.16309 1.23438L10.7318 10.8656" stroke="#475258" stroke-linecap="round" stroke-linejoin="round" />
		</svg>
	</symbol>
	<symbol id="category_outlined" viewBox="0 0 16 16">
		<svg width="16" height="16" viewBox="0 0 16 16" xmlns="http://www.w3.org/2000/svg">
			<path d="M7.66675 1.3335L4.00008 7.3335H11.3334L7.66675 1.3335ZM7.66675 3.8935L8.95341 6.00016H6.37341L7.66675 3.8935ZM11.3334 8.66683C9.67341 8.66683 8.33341 10.0068 8.33341 11.6668C8.33341 13.3268 9.67341 14.6668 11.3334 14.6668C12.9934 14.6668 14.3334 13.3268 14.3334 11.6668C14.3334 10.0068 12.9934 8.66683 11.3334 8.66683ZM11.3334 13.3335C10.4134 13.3335 9.66675 12.5868 9.66675 11.6668C9.66675 10.7468 10.4134 10.0002 11.3334 10.0002C12.2534 10.0002 13.0001 10.7468 13.0001 11.6668C13.0001 12.5868 12.2534 13.3335 11.3334 13.3335ZM1.66675 14.3335H7.00008V9.00016H1.66675V14.3335ZM3.00008 10.3335H5.66675V13.0002H3.00008V10.3335Z" />
		</svg>
	</symbol>
	<symbol id="event_note" viewBox="0 0 20 20">
		<svg viewBox="0 0 20 20" xmlns="http://www.w3.org/2000/svg">
			<g id="event_note">
				<path id="Vector" d="M15.8333 3.33317H15V1.6665H13.3333V3.33317H6.66667V1.6665H5V3.33317H4.16667C3.25 3.33317 2.5 4.08317 2.5 4.99984V16.6665C2.5 17.5832 3.25 18.3332 4.16667 18.3332H15.8333C16.75 18.3332 17.5 17.5832 17.5 16.6665V4.99984C17.5 4.08317 16.75 3.33317 15.8333 3.33317ZM15.8333 16.6665H4.16667V8.33317H15.8333V16.6665ZM4.16667 6.6665V4.99984H15.8333V6.6665H4.16667ZM5.83333 9.99984H14.1667V11.6665H5.83333V9.99984ZM5.83333 13.3332H11.6667V14.9998H5.83333V13.3332Z" />
			</g>
		</svg>
	</symbol>
	<symbol id="record_voice_over" viewBox="0 0 20 20">
		<svg viewBox="0 0 20 20" xmlns="http://www.w3.org/2000/svg">
			<g id="record_voice_over">
				<path id="Vector" d="M7.50041 11.2502C9.34207 11.2502 10.8337 9.7585 10.8337 7.91683C10.8337 6.07516 9.34207 4.5835 7.50041 4.5835C5.65874 4.5835 4.16707 6.07516 4.16707 7.91683C4.16707 9.7585 5.65874 11.2502 7.50041 11.2502ZM7.50041 6.25016C8.41707 6.25016 9.16707 7.00016 9.16707 7.91683C9.16707 8.8335 8.41707 9.5835 7.50041 9.5835C6.58374 9.5835 5.83374 8.8335 5.83374 7.91683C5.83374 7.00016 6.58374 6.25016 7.50041 6.25016ZM7.50041 12.9168C5.27541 12.9168 0.83374 14.0335 0.83374 16.2502V17.9168H14.1671V16.2502C14.1671 14.0335 9.72541 12.9168 7.50041 12.9168ZM2.50041 16.2502C2.68374 15.6502 5.25874 14.5835 7.50041 14.5835C9.75041 14.5835 12.3337 15.6585 12.5004 16.2502H2.50041ZM12.5671 6.29183C13.2671 7.27516 13.2671 8.55016 12.5671 9.5335L13.9671 10.9418C15.6504 9.2585 15.6504 6.71683 13.9671 4.8835L12.5671 6.29183ZM16.7254 2.0835L15.3671 3.44183C17.6754 5.9585 17.6754 9.74183 15.3671 12.3918L16.7254 13.7502C19.9754 10.5085 19.9837 5.4585 16.7254 2.0835Z" />
			</g>
		</svg>
	</symbol>
	<symbol id="pause_outlined" viewBox="0 0 17 16" fill="none">
		<svg viewBox="0 0 17 16" fill="none" xmlns="http://www.w3.org/2000/svg">
			<path d="M11.1667 5.33333V10.6667H5.83333V5.33333H11.1667ZM12.5 4H4.5V12H12.5V4Z" fill="url(#paint0_linear_12509_10708)" />
			<defs>
				<linearGradient id="paint0_linear_12509_10708" x1="2.52" y1="13.78" x2="12.96" y2="3.28" gradientUnits="userSpaceOnUse">
					<stop stop-color="#2C22C0" />
					<stop offset="1" stop-color="#8F30BC" />
				</linearGradient>
			</defs>
		</svg>
	</symbol>
	<symbol id="play_arrow_outlined" viewBox="0 0 17 16" fill="none">
		<svg viewBox="0 0 17 16" fill="none" xmlns="http://www.w3.org/2000/svg">
			<g id="play_arrow">
				<path id="Vector" d="M6.16683 5.76016L9.68016 8.00016L6.16683 10.2402V5.76016ZM4.8335 3.3335V12.6668L12.1668 8.00016L4.8335 3.3335Z" fill="url(#paint0_linear_12668_14485)" />
			</g>
			<defs>
				<linearGradient id="paint0_linear_12668_14485" x1="3.0185" y1="14.7435" x2="14.8688" y2="5.37907" gradientUnits="userSpaceOnUse">
					<stop stop-color="#2C22C0" />
					<stop offset="1" stop-color="#8F30BC" />
				</linearGradient>
			</defs>
		</svg>
	</symbol>
	<symbol id="info_outlined" viewBox="0 0 18 18">
		<svg viewBox="0 0 18 18" xmlns="http://www.w3.org/2000/svg">
			<g id="info">
				<path id="Vector" d="M8.26968 5.33366H9.73635V6.80033H8.26968V5.33366ZM8.26968 8.26699H9.73635V12.667H8.26968V8.26699ZM9.00301 1.66699C4.95501 1.66699 1.66968 4.95233 1.66968 9.00033C1.66968 13.0483 4.95501 16.3337 9.00301 16.3337C13.051 16.3337 16.3363 13.0483 16.3363 9.00033C16.3363 4.95233 13.051 1.66699 9.00301 1.66699ZM9.00301 14.867C5.76901 14.867 3.13634 12.2343 3.13634 9.00033C3.13634 5.76633 5.76901 3.13366 9.00301 3.13366C12.237 3.13366 14.8697 5.76633 14.8697 9.00033C14.8697 12.2343 12.237 14.867 9.00301 14.867Z" />
			</g>
		</svg>
	</symbol>
	<symbol id="space_dashboard_outlined" viewBox="0 0 20 20">
		<svg viewBox="0 0 20 20" xmlns="http://www.w3.org/2000/svg">
			<g id="space_dashboard">
				<path id="Vector" d="M15.8333 2.5H4.16667C3.25 2.5 2.5 3.25 2.5 4.16667V15.8333C2.5 16.75 3.25 17.5 4.16667 17.5H15.8333C16.75 17.5 17.5 16.75 17.5 15.8333V4.16667C17.5 3.25 16.75 2.5 15.8333 2.5ZM4.16667 15.8333V4.16667H9.16667V15.8333H4.16667ZM15.8333 15.8333H10.8333V10H15.8333V15.8333ZM15.8333 8.33334H10.8333V4.16667H15.8333V8.33334Z" />
			</g>
		</svg>
	</symbol>
	<symbol id="close_with_border" viewBox="0 0 22 22">
		<svg viewBox="0 0 22 22" fill="none" xmlns="http://www.w3.org/2000/svg">
			<g id="random-icons">
				<circle id="Ellipse 6" cx="11" cy="11" r="10.5" fill="url(#paint0_linear_12500_45263)" stroke="#E1E5EA" />
				<path id="Vector" d="M14 8L8 14" stroke="white" stroke-linecap="round" stroke-linejoin="round" />
				<path id="Vector_2" d="M8 8L14 14" stroke="white" stroke-linecap="round" stroke-linejoin="round" />
			</g>
			<defs>
				<linearGradient id="paint0_linear_12500_45263" x1="0.087452" y1="22" x2="21.7498" y2="-1.35928" gradientUnits="userSpaceOnUse">
					<stop stop-color="#22292E" />
					<stop offset="1" stop-color="#45545C" />
				</linearGradient>
			</defs>
		</svg>
	</symbol>
	<symbol id="podium_outlined" viewBox="0 0 18 18">
		<svg width="18" height="18" viewBox="0 0 18 18" fill="none" xmlns="http://www.w3.org/2000/svg">
			<mask id="mask0_22744_52685" style="mask-type:alpha" maskUnits="userSpaceOnUse" x="0" y="0" width="18" height="18">
				<rect width="18" height="18" fill="#D9D9D9" />
			</mask>
			<g mask="url(#mask0_22744_52685)">
				<path d="M9.375 3.375C9.375 3.7875 9.22813 4.14062 8.93438 4.43438C8.64063 4.72813 8.2875 4.875 7.875 4.875C7.7125 4.875 7.5625 4.85313 7.425 4.80938C7.2875 4.76562 7.15 4.69375 7.0125 4.59375C6.7125 4.69375 6.47188 4.875 6.29063 5.1375C6.10938 5.4 6.01875 5.6875 6.01875 6H15.75L15 11.25H11.325V9.75H13.7063C13.7688 9.375 13.8219 9 13.8656 8.625C13.9094 8.25 13.9625 7.875 14.025 7.5H3.975C4.0375 7.875 4.09063 8.25 4.13438 8.625C4.17813 9 4.23125 9.375 4.29375 9.75H6.675V11.25H3L2.25 6H4.5C4.5 5.3875 4.66875 4.83125 5.00625 4.33125C5.34375 3.83125 5.8 3.4625 6.375 3.225C6.4125 2.8375 6.575 2.51562 6.8625 2.25937C7.15 2.00312 7.4875 1.875 7.875 1.875C8.2875 1.875 8.64063 2.02188 8.93438 2.31563C9.22813 2.60938 9.375 2.9625 9.375 3.375ZM7.33125 14.25H10.6688L11.1 9.75H6.9L7.33125 14.25ZM6 15.75L5.4375 9.9C5.3875 9.4625 5.5125 9.07813 5.8125 8.74688C6.1125 8.41563 6.48125 8.25 6.91875 8.25H11.0813C11.5188 8.25 11.8875 8.41563 12.1875 8.74688C12.4875 9.07813 12.6125 9.4625 12.5625 9.9L12 15.75H6Z" fill="#1C1B1F" />
			</g>
		</svg>
	</symbol>
	<symbol id="task_outlined" viewBox="0 0 24 24">
		<svg width="24" height="24" viewBox="0 0 24 24" fill="none" xmlns="http://www.w3.org/2000/svg">
			<path d="M14 2H6C4.9 2 4.01 2.9 4.01 4L4 20C4 21.1 4.89 22 5.99 22H18C19.1 22 20 21.1 20 20V8L14 2ZM18 20H6V4H13V9H18V20ZM8.82 13.05L7.4 14.46L10.94 18L16.6 12.34L15.19 10.93L10.95 15.17L8.82 13.05Z" fill="currentColor" />
		</svg>
	</symbol>
	<symbol id="mic_outlined" viewBox="0 0 16 17">
		<svg width="16" height="17" viewBox="0 0 16 17" fill="none" xmlns="http://www.w3.org/2000/svg">
			<g clip-path="url(#clip0_23261_42115)">
				<path d="M4.66683 14.833H6.00016V16.1663H4.66683V14.833ZM8.00016 8.83301C9.10683 8.83301 10.0002 7.93967 10.0002 6.83301V2.83301C10.0002 1.72634 9.10683 0.833008 8.00016 0.833008C6.8935 0.833008 6.00016 1.72634 6.00016 2.83301V6.83301C6.00016 7.93967 6.8935 8.83301 8.00016 8.83301ZM7.3335 2.83301C7.3335 2.46634 7.6335 2.16634 8.00016 2.16634C8.36683 2.16634 8.66683 2.46634 8.66683 2.83301V6.83301C8.66683 7.20634 8.3735 7.49967 8.00016 7.49967C7.6335 7.49967 7.3335 7.19967 7.3335 6.83301V2.83301ZM7.3335 14.833H8.66683V16.1663H7.3335V14.833ZM10.0002 14.833H11.3335V16.1663H10.0002V14.833ZM12.6668 6.83301H11.5335C11.5335 8.83301 9.84016 10.233 8.00016 10.233C6.16016 10.233 4.46683 8.83301 4.46683 6.83301H3.3335C3.3335 9.10634 5.14683 10.9863 7.3335 11.313V13.4997H8.66683V11.313C10.8535 10.9863 12.6668 9.10634 12.6668 6.83301Z" fill="currentColor" />
			</g>
			<defs>
				<clipPath id="clip0_23261_42115">
					<rect width="16" height="16" fill="currentColor" transform="translate(0 0.5)" />
				</clipPath>
			</defs>
		</svg>
	</symbol>
	<symbol id="stop_outlined" viewBox="0 0 16 17">
		<svg width="16" height="17" viewBox="0 0 16 17" fill="none" xmlns="http://www.w3.org/2000/svg">
			<path d="M10.6667 5.83333V11.1667H5.33333V5.83333H10.6667ZM12 4.5H4V12.5H12V4.5Z" fill="currentColor" />
		</svg>
	</symbol>
	<symbol id="closed_caption" viewBox="0 0 16 17">
		<svg width="16" height="17" viewBox="0 0 16 17" fill="none" xmlns="http://www.w3.org/2000/svg">
			<path d="M12.6667 3.16699H3.33333C2.59333 3.16699 2 3.76699 2 4.50033V12.5003C2 13.2337 2.59333 13.8337 3.33333 13.8337H12.6667C13.4 13.8337 14 13.2337 14 12.5003V4.50033C14 3.76699 13.4 3.16699 12.6667 3.16699ZM12.6667 12.5003H3.33333V4.50033H12.6667V12.5003ZM4.66667 10.5003H6.66667C7.03333 10.5003 7.33333 10.2003 7.33333 9.83366V9.16699H6.33333V9.50033H5V7.50033H6.33333V7.83366H7.33333V7.16699C7.33333 6.80033 7.03333 6.50033 6.66667 6.50033H4.66667C4.3 6.50033 4 6.80033 4 7.16699V9.83366C4 10.2003 4.3 10.5003 4.66667 10.5003ZM9.33333 10.5003H11.3333C11.7 10.5003 12 10.2003 12 9.83366V9.16699H11V9.50033H9.66667V7.50033H11V7.83366H12V7.16699C12 6.80033 11.7 6.50033 11.3333 6.50033H9.33333C8.96667 6.50033 8.66667 6.80033 8.66667 7.16699V9.83366C8.66667 10.2003 8.96667 10.5003 9.33333 10.5003Z" fill="currentColor" />
		</svg>
	</symbol>
	<symbol id="status_offline" viewBox="0 0 24 25">
		<svg width="24" height="25" viewBox="0 0 24 25" fill="none" xmlns="http://www.w3.org/2000/svg">
			<rect y="0.5" width="24" height="24" rx="12" fill="#8595A6" />
			<path d="M6.07655 5.90332L5.12988 6.84332L6.92322 8.63665C6.05655 9.76332 5.53655 11.17 5.53655 12.6967C5.53655 14.5367 6.28322 16.2033 7.48988 17.41L8.43655 16.4633C7.46988 15.5033 6.86988 14.17 6.86988 12.6967C6.86988 11.53 7.24988 10.4633 7.87655 9.58999L8.82988 10.5433C8.43655 11.1633 8.20322 11.9033 8.20322 12.6967C8.20322 13.8033 8.65655 14.7967 9.37655 15.5233L10.3232 14.5767C9.83655 14.0967 9.53655 13.4367 9.53655 12.6967C9.53655 12.2767 9.63655 11.8767 9.80988 11.5233L10.8832 12.5967C10.8832 12.63 10.8699 12.6633 10.8699 12.6967C10.8699 13.0633 11.0232 13.3967 11.2632 13.6367C11.5032 13.8767 11.8365 14.03 12.2032 14.03C12.2365 14.03 12.2699 14.0233 12.3099 14.0167L17.3899 19.0967L18.3299 18.1567L6.07655 5.90332ZM16.0032 13.9433C16.1299 13.55 16.2032 13.13 16.2032 12.6967C16.2032 10.49 14.4099 8.69665 12.2032 8.69665C11.7699 8.69665 11.3499 8.76332 10.9565 8.89665L12.0965 10.0367C12.1299 10.03 12.1699 10.03 12.2032 10.03C13.6765 10.03 14.8699 11.2233 14.8699 12.6967C14.8699 12.73 14.8699 12.77 14.8632 12.8033L16.0032 13.9433ZM12.2032 7.36332C15.1499 7.36332 17.5365 9.74999 17.5365 12.6967C17.5365 13.51 17.3565 14.2767 17.0232 14.9633L18.0165 15.9567C18.5565 14.9967 18.8699 13.8833 18.8699 12.6967C18.8699 9.01665 15.8832 6.02999 12.2032 6.02999C11.0165 6.02999 9.90988 6.33665 8.94322 6.88332L9.92988 7.86999C10.6232 7.54332 11.3899 7.36332 12.2032 7.36332Z" fill="white" />
		</svg>
	</symbol>
	<symbol id="status_error" viewBox="0 0 24 25">
		<svg width="24" height="25" viewBox="0 0 24 25" fill="none" xmlns="http://www.w3.org/2000/svg">
			<rect y="0.5" width="24" height="24" rx="12" fill="#FA9620" />
			<path d="M11.9998 7.82602L17.0198 16.4993H6.97984L11.9998 7.82602ZM11.9998 5.16602L4.6665 17.8327H19.3332L11.9998 5.16602ZM12.6665 14.4993H11.3332V15.8327H12.6665V14.4993ZM12.6665 10.4993H11.3332V13.166H12.6665V10.4993Z" fill="white" />
		</svg>
	</symbol>
	<symbol id="status_online_projecting" viewBox="0 0 24 25">
		<svg width="24" height="25" viewBox="0 0 24 25" fill="none" xmlns="http://www.w3.org/2000/svg">
			<rect y="0.5" width="24" height="24" rx="12" fill="#01BC47" />
			<path d="M10.8666 17.1702L8.06663 14.3702L7.1333 15.3035L10.8666 19.0368L18.8666 11.0368L17.9333 10.1035L10.8666 17.1702Z" fill="white" />
			<path d="M12.1333 5.96191H6.79997C6.4333 5.96191 6.1333 6.26191 6.1333 6.62858V10.2952C6.1333 10.6619 6.4333 10.9619 6.79997 10.9619H7.79997L7.46663 11.2952V11.9619H11.4666V11.2952L11.1333 10.9619H12.1333C12.5 10.9619 12.8 10.6619 12.8 10.2952V6.62858C12.8 6.26191 12.5 5.96191 12.1333 5.96191ZM12.1333 10.2952H6.79997V6.62858H12.1333V10.2952Z" fill="white" />
		</svg>
	</symbol>
	<symbol id="status_online" viewBox="0 0 24 25">
		<svg width="24" height="25" viewBox="0 0 24 25" fill="none" xmlns="http://www.w3.org/2000/svg">
			<rect y="0.5" width="24" height="24" rx="12" fill="#01BC47" />
			<path d="M9.86663 15.0999L7.06663 12.2999L6.1333 13.2332L9.86663 16.9665L17.8666 8.96654L16.9333 8.0332L9.86663 15.0999Z" fill="white" />
		</svg>
	</symbol>
	<symbol id="loading_spinner" viewBox="0 0 16 17">
		<svg width="16" height="17" viewBox="0 0 16 17" fill="none" xmlns="http://www.w3.org/2000/svg">
			<path d="M7.86666 2.7C8.14369 2.7 8.35776 3.01481 8.35776 3.40516V4.81549C8.35776 5.20583 8.13114 5.52065 7.86666 5.52065C7.58962 5.52065 7.37555 5.20583 7.37555 4.81549V3.40516C7.37555 3.01481 7.58961 2.7 7.86666 2.7ZM11.8711 4.36225C12.0599 4.5511 11.997 4.94155 11.72 5.21849L10.7126 6.22591C10.4355 6.50295 10.0577 6.56593 9.85631 6.377C9.66746 6.18814 9.73035 5.7977 10.0074 5.52075L11.0148 4.51333C11.3044 4.2363 11.6822 4.16074 11.8711 4.36225ZM13.5333 8.36666C13.5333 8.64369 13.2185 8.85776 12.8282 8.85776H11.4052C11.0148 8.85776 10.7 8.63114 10.7 8.36666C10.7 8.08962 11.0148 7.87555 11.4052 7.87555H12.8155C13.2185 7.87555 13.5333 8.08961 13.5333 8.36666ZM11.8711 12.3711C11.6822 12.5599 11.2918 12.497 11.0148 12.22L10.0074 11.2126C9.73036 10.9355 9.66738 10.5577 9.85631 10.3563C10.0452 10.1675 10.4356 10.2304 10.7126 10.5074L11.72 11.5148C11.997 11.8044 12.0726 12.1822 11.8711 12.3711ZM7.86666 14.0333C7.58962 14.0333 7.37555 13.7185 7.37555 13.3282V11.9052C7.37555 11.5148 7.60217 11.2 7.86666 11.2C8.14369 11.2 8.35776 11.5148 8.35776 11.9052V13.3155C8.35776 13.7185 8.1437 14.0333 7.86666 14.0333ZM3.86225 12.3711C3.6734 12.1822 3.73629 11.7918 4.01333 11.5148L5.02075 10.5074C5.29779 10.2304 5.67558 10.1674 5.877 10.3563C6.06585 10.5452 6.00296 10.9356 5.72591 11.2126L4.71849 12.22C4.42889 12.497 4.05109 12.5726 3.86225 12.3711ZM2.2 8.36666C2.2 8.08962 2.51481 7.87555 2.90516 7.87555H4.31549C4.70583 7.87555 5.02065 8.10217 5.02065 8.36666C5.02065 8.64369 4.70583 8.85776 4.31549 8.85776H2.90516C2.51481 8.85776 2.2 8.6437 2.2 8.36666Z" fill="currentColor" />
			<path fill-rule="evenodd" clip-rule="evenodd" d="M9.71489 6.51842C9.56066 6.36418 9.52611 6.14572 9.56003 5.94808C9.59435 5.74809 9.70075 5.54451 9.86598 5.37933L10.8765 4.36877C11.0444 4.20817 11.2455 4.09819 11.4446 4.06163C11.643 4.0252 11.8606 4.06045 12.0148 4.22314C12.1671 4.37724 12.2011 4.59451 12.1673 4.79117C12.133 4.99117 12.0266 5.19475 11.8614 5.35994L10.854 6.36733C10.6898 6.53155 10.4897 6.63865 10.2903 6.67325C10.0913 6.70777 9.87734 6.67095 9.71948 6.52286L9.71489 6.51842ZM11.8711 4.36225C11.6822 4.16074 11.3044 4.2363 11.0148 4.51333L10.0074 5.52075C9.73035 5.7977 9.66746 6.18814 9.85631 6.377C10.0577 6.56593 10.4355 6.50295 10.7126 6.22591L11.72 5.21849C11.997 4.94155 12.0599 4.5511 11.8711 4.36225ZM9.71489 10.2149C9.86913 10.0607 10.0876 10.0261 10.2852 10.06C10.4852 10.0944 10.6888 10.2007 10.854 10.366L11.8645 11.3765C12.0251 11.5444 12.1351 11.7455 12.1717 11.9446C12.2081 12.143 12.1729 12.3606 12.0102 12.5148C11.8561 12.6671 11.6388 12.7011 11.4421 12.6673C11.2422 12.633 11.0386 12.5266 10.8734 12.3614L9.86598 11.354C9.70176 11.1898 9.59466 10.9897 9.56006 10.7903C9.52554 10.5913 9.56236 10.3773 9.71045 10.2195L9.71489 10.2149ZM11.0148 12.22C11.2918 12.497 11.6822 12.5599 11.8711 12.3711C12.0726 12.1822 11.997 11.8044 11.72 11.5148L10.7126 10.5074C10.4356 10.2304 10.0452 10.1675 9.85631 10.3563C9.66738 10.5577 9.73036 10.9355 10.0074 11.2126L11.0148 12.22ZM6.01842 10.2149C6.17265 10.3691 6.2072 10.5876 6.17328 10.7852C6.13896 10.9852 6.03255 11.1888 5.86731 11.354L4.85678 12.3645C4.68888 12.5251 4.4878 12.6351 4.28871 12.6717C4.09034 12.7081 3.87276 12.6729 3.71853 12.5102C3.56625 12.3561 3.53221 12.1388 3.56596 11.9421C3.60029 11.7421 3.70669 11.5386 3.87194 11.3734L4.87933 10.366C5.04355 10.2018 5.2436 10.0947 5.44305 10.0601C5.64205 10.0255 5.85597 10.0624 6.01383 10.2104L6.01842 10.2149ZM4.01333 11.5148C3.73629 11.7918 3.6734 12.1822 3.86225 12.3711C4.05109 12.5726 4.42889 12.497 4.71849 12.22L5.72591 11.2126C6.00296 10.9356 6.06585 10.5452 5.877 10.3563C5.67558 10.1674 5.29779 10.2304 5.02075 10.5074L4.01333 11.5148ZM8.38061 2.79246C8.4951 2.95806 8.55776 3.17543 8.55776 3.40516V4.81549C8.55776 5.04771 8.49067 5.2651 8.37495 5.42954C8.2604 5.59234 8.08319 5.72065 7.86666 5.72065C7.64546 5.72065 7.46736 5.59402 7.3527 5.42818C7.23821 5.26258 7.17555 5.04522 7.17555 4.81549V3.40516C7.17555 3.17543 7.23821 2.95806 7.3527 2.79246C7.46735 2.62662 7.64546 2.5 7.86666 2.5C8.08785 2.5 8.26595 2.62662 8.38061 2.79246ZM13.4409 8.88061C13.2752 8.9951 13.0579 9.05776 12.8282 9.05776H11.4052C11.173 9.05776 10.9556 8.99067 10.7911 8.87496C10.6283 8.7604 10.5 8.5832 10.5 8.36666C10.5 8.14546 10.6267 7.96736 10.7925 7.8527C10.9581 7.73821 11.1755 7.67555 11.4052 7.67555H12.8155C13.0504 7.67555 13.2708 7.73762 13.4383 7.85205C13.6063 7.96678 13.7333 8.14514 13.7333 8.36666C13.7333 8.58785 13.6067 8.76595 13.4409 8.88061ZM7.3527 13.9408C7.23821 13.7752 7.17555 13.5579 7.17555 13.3282V11.9052C7.17555 11.673 7.24265 11.4556 7.35836 11.2911C7.47291 11.1283 7.65012 11 7.86666 11C8.08785 11 8.26595 11.1267 8.38061 11.2925C8.4951 11.4581 8.55776 11.6755 8.55776 11.9052V13.3155C8.55776 13.5504 8.49569 13.7708 8.38126 13.9383C8.26653 14.1063 8.08817 14.2333 7.86666 14.2333C7.64546 14.2333 7.46736 14.1067 7.3527 13.9408ZM2.29246 7.8527C2.45806 7.73821 2.67543 7.67555 2.90516 7.67555H4.31549C4.54771 7.67555 4.7651 7.74265 4.92954 7.85836C5.09234 7.97291 5.22065 8.15012 5.22065 8.36666C5.22065 8.58785 5.09402 8.76595 4.92818 8.88061C4.76258 8.9951 4.54522 9.05776 4.31549 9.05776H2.90516C2.67543 9.05776 2.45806 8.9951 2.29246 8.88061C2.12662 8.76596 2 8.58785 2 8.36666C2 8.14546 2.12662 7.96736 2.29246 7.8527ZM8.35776 3.40516C8.35776 3.01481 8.14369 2.7 7.86666 2.7C7.58961 2.7 7.37555 3.01481 7.37555 3.40516V4.81549C7.37555 5.20583 7.58962 5.52065 7.86666 5.52065C8.13114 5.52065 8.35776 5.20583 8.35776 4.81549V3.40516ZM12.8282 8.85776C13.2185 8.85776 13.5333 8.64369 13.5333 8.36666C13.5333 8.08961 13.2185 7.87555 12.8155 7.87555H11.4052C11.0148 7.87555 10.7 8.08962 10.7 8.36666C10.7 8.63114 11.0148 8.85776 11.4052 8.85776H12.8282ZM7.37555 13.3282C7.37555 13.7185 7.58962 14.0333 7.86666 14.0333C8.1437 14.0333 8.35776 13.7185 8.35776 13.3155V11.9052C8.35776 11.5148 8.14369 11.2 7.86666 11.2C7.60217 11.2 7.37555 11.5148 7.37555 11.9052V13.3282ZM2.90516 7.87555C2.51481 7.87555 2.2 8.08962 2.2 8.36666C2.2 8.6437 2.51481 8.85776 2.90516 8.85776H4.31549C4.70583 8.85776 5.02065 8.64369 5.02065 8.36666C5.02065 8.10217 4.70583 7.87555 4.31549 7.87555H2.90516Z" fill="currentColor" />
		</svg>
	</symbol>
	<symbol id="warning_outlined" viewBox="0 0 22 20">
		<svg width="22" height="20" viewBox="0 0 22 20" fill="none" xmlns="http://www.w3.org/2000/svg">
			<path d="M11 4.49L18.53 17.5H3.47L11 4.49ZM11 0.5L0 19.5H22L11 0.5Z" fill="currentColor" />
			<path d="M12 14.5H10V16.5H12V14.5Z" fill="currentColor" />
			<path d="M12 8.5H10V13.5H12V8.5Z" fill="currentColor" />
		</svg>
	</symbol>
</svg>
