<svg width="1340" height="144" viewBox="0 0 1340 144" fill="none" xmlns="http://www.w3.org/2000/svg">
<g >
<rect x="3" y="2" width="1334" height="138" rx="4" fill="white" shape-rendering="crispEdges"/>
<path d="M27 28C27 26.8954 27.8954 26 29 26H507C508.105 26 509 26.8954 509 28V42C509 43.1046 508.105 44 507 44H29C27.8954 44 27 43.1046 27 42V28Z" fill="#F5F7FA"/>
<rect x="27" y="56" width="112" height="16" rx="2" fill="#F5F7FA"/>
<mask id="path-4-inside-1_11817_19210" fill="white">
<path d="M27 84H509V112H27V84Z"/>
</mask>
<path d="M27 85H509V83H27V85Z" fill="white" mask="url(#path-4-inside-1_11817_19210)"/>
<path d="M27 94C27 92.8954 27.8954 92 29 92H507C508.105 92 509 92.8954 509 94V110C509 111.105 508.105 112 507 112H29C27.8954 112 27 111.105 27 110V94Z" fill="#F5F7FA"/>
<rect x="557" y="43" width="105" height="32" rx="16" fill="#F5F7FA"/>
<rect x="557" y="83" width="105" height="16" rx="2" fill="#F5F7FA"/>
<rect x="681" y="43" width="105" height="32" rx="16" fill="#F5F7FA"/>
<rect x="681" y="83" width="105" height="16" rx="2" fill="#F5F7FA"/>
<rect x="1208" y="43" width="105" height="32" rx="16" fill="#F5F7FA"/>
<rect x="1208" y="83" width="105" height="16" rx="2" fill="#F5F7FA"/>
<path d="M954.957 64.6842H958.609V76.6842H954.957V64.6842Z" fill="#F5F7FA"/>
<path d="M1097.39 64.6842H1101.04V76.6842H1097.39V64.6842Z" fill="#F5F7FA"/>
<path d="M976.87 64.6842H980.522V76.6842H976.87V64.6842Z" fill="#F5F7FA"/>
<path d="M1020.7 64.6842H1024.35V76.6842H1020.7V64.6842Z" fill="#F5F7FA"/>
<path d="M1042.61 64.6842H1046.26V76.6842H1042.61V64.6842Z" fill="#F5F7FA"/>
<path d="M965.913 62.1579H969.565V79.2105H965.913V62.1579Z" fill="#F5F7FA"/>
<path d="M987.826 62.1579H991.478V79.2105H987.826V62.1579Z" fill="#F5F7FA"/>
<path d="M1009.74 62.1579H1013.39V79.2105H1009.74V62.1579Z" fill="#F5F7FA"/>
<path d="M1053.57 62.1579H1057.22V79.2105H1053.57V62.1579Z" fill="#F5F7FA"/>
<path d="M1086.43 62.1579H1090.09V79.2105H1086.43V62.1579Z" fill="#F5F7FA"/>
<path d="M1064.52 67.2105H1068.17V74.7895H1064.52V67.2105Z" fill="#F5F7FA"/>
<path d="M944 67.2105H947.652V74.7895H944V67.2105Z" fill="#F5F7FA"/>
<path d="M1108.35 67.2105H1112V74.7895H1108.35V67.2105Z" fill="#F5F7FA"/>
<path d="M998.783 59H1002.43V83H998.783V59Z" fill="#F5F7FA"/>
<path d="M1031.65 59H1035.3V83H1031.65V59Z" fill="#F5F7FA"/>
<path d="M1075.48 59H1079.13V83H1075.48V59Z" fill="#F5F7FA"/>
</g>
<defs>
<filter id="filter0_d_11817_19210" x="0" y="0" width="1340" height="144" filterUnits="userSpaceOnUse" color-interpolation-filters="sRGB">
<feFlood flood-opacity="0" result="BackgroundImageFix"/>
<feColorMatrix in="SourceAlpha" type="matrix" values="0 0 0 0 0 0 0 0 0 0 0 0 0 0 0 0 0 0 127 0" result="hardAlpha"/>
<feOffset dy="1"/>
<feGaussianBlur stdDeviation="1.5"/>
<feComposite in2="hardAlpha" operator="out"/>
<feColorMatrix type="matrix" values="0 0 0 0 0 0 0 0 0 0 0 0 0 0 0 0 0 0 0.25 0"/>
<feBlend mode="normal" in2="BackgroundImageFix" result="effect1_dropShadow_11817_19210"/>
<feBlend mode="normal" in="SourceGraphic" in2="effect1_dropShadow_11817_19210" result="shape"/>
</filter>
</defs>
</svg>
