<svg width="20" height="21" viewBox="0 0 20 21" fill="none" xmlns="http://www.w3.org/2000/svg">
<g id="note_stack">
<mask id="mask0_8860_88857" style="mask-type:alpha" maskUnits="userSpaceOnUse" x="0" y="0" width="20" height="21">
<rect id="Bounding box" y="0.5" width="20" height="20" fill="#D9D9D9"/>
</mask>
<g mask="url(#mask0_8860_88857)">
<path id="note_stack_2" d="M5.83333 17.1667V7.97917C5.83333 7.52083 6 7.13195 6.33333 6.8125C6.66667 6.49306 7.0625 6.33333 7.52083 6.33333H16.6667C17.125 6.33333 17.5174 6.49653 17.8438 6.82292C18.1701 7.14931 18.3333 7.54167 18.3333 8V14.6667L14.1667 18.8333H7.5C7.04167 18.8333 6.64931 18.6701 6.32292 18.3438C5.99653 18.0174 5.83333 17.625 5.83333 17.1667ZM1.6875 5.70833C1.60417 5.25 1.69445 4.83681 1.95833 4.46875C2.22222 4.1007 2.58333 3.875 3.04167 3.79167L12.0833 2.1875C12.5417 2.10417 12.9549 2.19445 13.3229 2.45833C13.691 2.72222 13.9167 3.08333 14 3.54167L14.2083 4.66667H12.5L12.3542 3.83333L3.33333 5.4375L4.16667 10.1458V15.9583C3.94445 15.8333 3.75347 15.6667 3.59375 15.4583C3.43403 15.25 3.33333 15.0139 3.29167 14.75L1.6875 5.70833ZM7.5 8V17.1667H13.3333V13.8333H16.6667V8H7.5Z" fill="white"/>
</g>
</g>
</svg>
