<svg width="168" height="24" viewBox="0 0 168 24" fill="none" xmlns="http://www.w3.org/2000/svg">
<g id="Voice">
<g id="Voice_2">
<path d="M10.9565 5.68421H14.6087V17.6842H10.9565V5.68421Z" fill="#F5F7FA"/>
<path d="M153.391 5.68421H157.043V17.6842H153.391V5.68421Z" fill="#F5F7FA"/>
<path d="M32.8696 5.68421H36.5217V17.6842H32.8696V5.68421Z" fill="#F5F7FA"/>
<path d="M76.6956 5.68421H80.3478V17.6842H76.6956V5.68421Z" fill="#F5F7FA"/>
<path d="M98.6087 5.68421H102.261V17.6842H98.6087V5.68421Z" fill="#F5F7FA"/>
<path d="M21.913 3.15789H25.5652V20.2105H21.913V3.15789Z" fill="#F5F7FA"/>
<path d="M43.8261 3.15789H47.4783V20.2105H43.8261V3.15789Z" fill="#F5F7FA"/>
<path d="M65.7391 3.15789H69.3913V20.2105H65.7391V3.15789Z" fill="#F5F7FA"/>
<path d="M109.565 3.15789H113.217V20.2105H109.565V3.15789Z" fill="#F5F7FA"/>
<path d="M142.435 3.15789H146.087V20.2105H142.435V3.15789Z" fill="#F5F7FA"/>
<path d="M120.522 8.21053H124.174V15.7895H120.522V8.21053Z" fill="#F5F7FA"/>
<path d="M0 8.21053H3.65217V15.7895H0V8.21053Z" fill="#F5F7FA"/>
<path d="M164.348 8.21053H168V15.7895H164.348V8.21053Z" fill="#F5F7FA"/>
<path d="M54.7826 0H58.4348V24H54.7826V0Z" fill="#F5F7FA"/>
<path d="M87.6522 0H91.3043V24H87.6522V0Z" fill="#F5F7FA"/>
<path d="M131.478 0H135.13V24H131.478V0Z" fill="#F5F7FA"/>
</g>
</g>
</svg>
