<svg width="16" height="16" viewBox="0 0 16 16" fill="none" xmlns="http://www.w3.org/2000/svg">
<g id="mic_none">
<path id="Vector" d="M8.00001 9.66667C9.10668 9.66667 10 8.77334 10 7.66667V3.66667C10 2.56001 9.10668 1.66667 8.00001 1.66667C6.89334 1.66667 6.00001 2.56001 6.00001 3.66667V7.66667C6.00001 8.77334 6.89334 9.66667 8.00001 9.66667ZM7.33334 3.66667C7.33334 3.3 7.63334 3.00001 8.00001 3.00001C8.36668 3.00001 8.66668 3.3 8.66668 3.66667V7.66667C8.66668 8.03334 8.36668 8.33334 8.00001 8.33334C7.63334 8.33334 7.33334 8.03334 7.33334 7.66667V3.66667ZM11.3333 7.66667C11.3333 9.50667 9.84001 11 8.00001 11C6.16001 11 4.66668 9.50667 4.66668 7.66667H3.33334C3.33334 10.02 5.07334 11.9533 7.33334 12.28V14.3333H8.66668V12.28C10.9267 11.9533 12.6667 10.02 12.6667 7.66667H11.3333Z" fill="white"/>
</g>
</svg>
