<svg width="18" height="18" viewBox="0 0 18 18" fill="none" xmlns="http://www.w3.org/2000/svg">
<path d="M9 1.5C4.86675 1.5 1.5 4.86675 1.5 9C1.5 13.1333 4.86675 16.5 9 16.5C13.1333 16.5 16.5 13.1333 16.5 9C16.5 4.86675 13.1333 1.5 9 1.5ZM9 3C12.3226 3 15 5.67741 15 9C15 12.0108 12.799 14.4848 9.91406 14.9238V10.7886H11.6602L11.9341 9.01465H9.91406V8.04492C9.91406 7.30767 10.1542 6.65332 10.8442 6.65332H11.9517V5.10498C11.7567 5.07873 11.3451 5.02148 10.5674 5.02148C8.94288 5.02148 7.99072 5.87948 7.99072 7.83398V9.01465H6.3208V10.7886H7.99072V14.9092C5.15272 14.4306 3 11.9777 3 9C3 5.67741 5.67741 3 9 3Z" fill="#343536"/>
</svg>
