<svg width="18" height="18" viewBox="0 0 18 18" fill="none" xmlns="http://www.w3.org/2000/svg">
<path d="M9 2.75C12.4462 2.75 15.25 5.55375 15.25 9C15.25 12.4462 12.4462 15.25 9 15.25C5.55375 15.25 2.75 12.4462 2.75 9C2.75 5.55375 5.55375 2.75 9 2.75ZM9 1.5C4.85813 1.5 1.5 4.85813 1.5 9C1.5 13.1419 4.85813 16.5 9 16.5C13.1419 16.5 16.5 13.1419 16.5 9C16.5 4.85813 13.1419 1.5 9 1.5ZM7.75 6.5C7.75 6.84812 7.47062 7.13 7.125 7.13C6.77938 7.13 6.5 6.84875 6.5 6.5C6.5 6.15188 6.77938 5.87 7.125 5.87C7.47062 5.87 7.75 6.1525 7.75 6.5ZM7.75 7.75H6.5V11.5H7.75V7.75ZM9.625 7.75H8.375V11.5H9.625V9.71187C9.625 8.63562 10.8763 8.53625 10.8763 9.71187V11.5H12.125V9.40062C12.125 7.34812 10.17 7.42313 9.625 8.43313V7.75Z" fill="#343536"/>
</svg>
