<svg width="364" height="100" viewBox="0 0 364 100" fill="none" xmlns="http://www.w3.org/2000/svg">
<path d="M147.804 23.7663H153.871V26.5292H147.804V23.7663ZM148.065 28.9188H154.898V31.7752H144.406V18.707H154.655V21.5634H148.065V28.9188Z" fill="#201A6E"/>
<path d="M138.078 31.7752V18.707H141.775V31.7752H138.078Z" fill="#201A6E"/>
<path d="M124.756 31.7752V29.4602L132.447 20.3312L132.895 21.638H124.924V18.707H136.181V21.022L128.49 30.151L128.042 28.8442H136.461V31.7752H124.756Z" fill="#201A6E"/>
<path d="M116.319 32.0367C115.273 32.0367 114.309 31.8686 113.425 31.5326C112.541 31.1966 111.77 30.7236 111.11 30.1138C110.463 29.4915 109.959 28.7696 109.598 27.9482C109.237 27.1268 109.057 26.2244 109.057 25.2412C109.057 24.258 109.237 23.3557 109.598 22.5343C109.959 21.7128 110.463 20.9972 111.11 20.3874C111.77 19.7651 112.541 19.2859 113.425 18.9499C114.309 18.6138 115.273 18.4458 116.319 18.4458C117.377 18.4458 118.341 18.6138 119.212 18.9499C120.096 19.2859 120.862 19.7651 121.509 20.3874C122.156 20.9972 122.66 21.7128 123.021 22.5343C123.394 23.3557 123.581 24.258 123.581 25.2412C123.581 26.2244 123.394 27.133 123.021 27.9669C122.66 28.7883 122.156 29.5039 121.509 30.1138C120.862 30.7236 120.096 31.1966 119.212 31.5326C118.341 31.8686 117.377 32.0367 116.319 32.0367ZM116.319 28.975C116.817 28.975 117.277 28.8879 117.7 28.7136C118.136 28.5394 118.509 28.2905 118.82 27.9669C119.144 27.6308 119.393 27.2326 119.567 26.7721C119.754 26.3116 119.847 25.8013 119.847 25.2412C119.847 24.6687 119.754 24.1584 119.567 23.7104C119.393 23.2499 119.144 22.8578 118.82 22.5343C118.509 22.1982 118.136 21.9431 117.7 21.7688C117.277 21.5946 116.817 21.5075 116.319 21.5075C115.821 21.5075 115.354 21.5946 114.919 21.7688C114.495 21.9431 114.122 22.1982 113.798 22.5343C113.487 22.8578 113.238 23.2499 113.052 23.7104C112.878 24.1584 112.79 24.6687 112.79 25.2412C112.79 25.8013 112.878 26.3116 113.052 26.7721C113.238 27.2326 113.487 27.6308 113.798 27.9669C114.122 28.2905 114.495 28.5394 114.919 28.7136C115.354 28.8879 115.821 28.975 116.319 28.975Z" fill="#201A6E"/>
<path d="M95.9102 31.7752V18.707H101.884C103.079 18.707 104.106 18.8999 104.965 19.2858C105.836 19.6716 106.508 20.2316 106.981 20.966C107.454 21.6878 107.69 22.5466 107.69 23.5422C107.69 24.5255 107.454 25.378 106.981 26.0999C106.508 26.8093 105.836 27.3569 104.965 27.7427C104.106 28.1161 103.079 28.3028 101.884 28.3028H97.9637L99.6066 26.7533V31.7752H95.9102ZM103.994 31.7752L100.745 27.0146H104.684L107.952 31.7752H103.994ZM99.6066 27.1453L97.9637 25.4465H101.66C102.432 25.4465 103.004 25.2784 103.378 24.9424C103.763 24.6064 103.956 24.1396 103.956 23.5422C103.956 22.9324 103.763 22.4595 103.378 22.1234C103.004 21.7874 102.432 21.6194 101.66 21.6194H97.9637L99.6066 19.9205V27.1453Z" fill="#201A6E"/>
<path d="M347.012 82.1055C344.091 82.1055 341.27 81.7736 338.549 81.1098C335.827 80.4461 333.587 79.5831 331.828 78.5211L335.612 69.9584C337.271 70.9208 339.113 71.7008 341.138 72.2982C343.195 72.8624 345.187 73.1445 347.112 73.1445C348.24 73.1445 349.12 73.0781 349.75 72.9454C350.414 72.7794 350.895 72.5637 351.194 72.2982C351.493 71.9995 351.642 71.651 351.642 71.2527C351.642 70.6221 351.293 70.1243 350.596 69.7592C349.899 69.3941 348.97 69.0954 347.809 68.8631C346.68 68.5976 345.436 68.3321 344.075 68.0666C342.714 67.7679 341.337 67.3862 339.943 66.9216C338.582 66.4569 337.321 65.8429 336.159 65.0796C335.031 64.3162 334.118 63.3206 333.421 62.0926C332.724 60.8314 332.376 59.2715 332.376 57.4129C332.376 55.2557 332.973 53.2975 334.168 51.5385C335.396 49.7463 337.205 48.3192 339.594 47.2571C342.017 46.1951 345.021 45.6641 348.605 45.6641C350.962 45.6641 353.285 45.913 355.575 46.4108C357.865 46.9086 359.923 47.672 361.748 48.7008L358.213 57.2138C356.487 56.3509 354.811 55.7037 353.185 55.2723C351.592 54.8408 350.032 54.6251 348.506 54.6251C347.377 54.6251 346.481 54.7246 345.817 54.9238C345.153 55.1229 344.672 55.3884 344.374 55.7203C344.108 56.0522 343.975 56.4173 343.975 56.8155C343.975 57.4129 344.324 57.8942 345.021 58.2593C345.718 58.5911 346.63 58.8733 347.759 59.1056C348.92 59.3379 350.182 59.5868 351.542 59.8523C352.936 60.1178 354.314 60.4829 355.674 60.9476C357.035 61.4122 358.28 62.0262 359.408 62.7895C360.57 63.5529 361.499 64.5486 362.196 65.7765C362.893 67.0045 363.241 68.5312 363.241 70.3566C363.241 72.4807 362.627 74.4389 361.399 76.2311C360.205 77.9901 358.412 79.4172 356.023 80.5124C353.633 81.5745 350.63 82.1055 347.012 82.1055Z" fill="#201A6E"/>
<path d="M316.613 81.3091V46.4607H328.362V81.3091H316.613Z" fill="#201A6E"/>
<path d="M296.887 82.1055C293.966 82.1055 291.145 81.7736 288.424 81.1098C285.702 80.4461 283.462 79.5831 281.703 78.5211L285.487 69.9584C287.146 70.9208 288.988 71.7008 291.013 72.2982C293.07 72.8624 295.062 73.1445 296.987 73.1445C298.115 73.1445 298.995 73.0781 299.625 72.9454C300.289 72.7794 300.77 72.5637 301.069 72.2982C301.368 71.9995 301.517 71.651 301.517 71.2527C301.517 70.6221 301.168 70.1243 300.471 69.7592C299.774 69.3941 298.845 69.0954 297.684 68.8631C296.555 68.5976 295.311 68.3321 293.95 68.0666C292.589 67.7679 291.212 67.3862 289.818 66.9216C288.457 66.4569 287.196 65.8429 286.034 65.0796C284.906 64.3162 283.993 63.3206 283.296 62.0926C282.599 60.8314 282.251 59.2715 282.251 57.4129C282.251 55.2557 282.848 53.2975 284.043 51.5385C285.271 49.7463 287.08 48.3192 289.469 47.2571C291.892 46.1951 294.896 45.6641 298.48 45.6641C300.837 45.6641 303.16 45.913 305.45 46.4108C307.74 46.9086 309.798 47.672 311.623 48.7008L308.088 57.2138C306.362 56.3509 304.686 55.7037 303.06 55.2723C301.467 54.8408 299.907 54.6251 298.381 54.6251C297.252 54.6251 296.356 54.7246 295.692 54.9238C295.028 55.1229 294.547 55.3884 294.249 55.7203C293.983 56.0522 293.85 56.4173 293.85 56.8155C293.85 57.4129 294.199 57.8942 294.896 58.2593C295.593 58.5911 296.505 58.8733 297.634 59.1056C298.795 59.3379 300.057 59.5868 301.417 59.8523C302.811 60.1178 304.189 60.4829 305.549 60.9476C306.91 61.4122 308.155 62.0262 309.283 62.7895C310.445 63.5529 311.374 64.5486 312.071 65.7765C312.768 67.0045 313.116 68.5312 313.116 70.3566C313.116 72.4807 312.502 74.4389 311.274 76.2311C310.08 77.9901 308.287 79.4172 305.898 80.5124C303.508 81.5745 300.505 82.1055 296.887 82.1055Z" fill="#201A6E"/>
<path d="M246.896 81.3091V46.4607H263.673C266.926 46.4607 269.73 46.9917 272.087 48.0538C274.476 49.1158 276.318 50.6425 277.613 52.6338C278.907 54.592 279.554 56.9152 279.554 59.6035C279.554 62.2918 278.907 64.615 277.613 66.5732C276.318 68.5313 274.476 70.058 272.087 71.1533C269.73 72.2153 266.926 72.7463 263.673 72.7463H253.418L258.645 67.7182V81.3091H246.896ZM258.645 69.0126L253.418 63.6858H262.927C264.553 63.6858 265.748 63.3207 266.511 62.5905C267.308 61.8604 267.706 60.8647 267.706 59.6035C267.706 58.3423 267.308 57.3467 266.511 56.6165C265.748 55.8864 264.553 55.5213 262.927 55.5213H253.418L258.645 50.1945V69.0126Z" fill="#201A6E"/>
<path d="M223.017 82.1055C220.163 82.1055 217.524 81.6575 215.101 80.7613C212.712 79.8652 210.637 78.6041 208.878 76.9778C207.119 75.3184 205.742 73.3768 204.746 71.1532C203.784 68.9295 203.303 66.5067 203.303 63.8848C203.303 61.2297 203.784 58.8069 204.746 56.6164C205.742 54.3927 207.119 52.4678 208.878 50.8415C210.637 49.1821 212.712 47.9043 215.101 47.0082C217.524 46.1121 220.146 45.6641 222.967 45.6641C225.821 45.6641 228.443 46.1121 230.833 47.0082C233.222 47.9043 235.297 49.1821 237.056 50.8415C238.815 52.4678 240.176 54.3927 241.138 56.6164C242.134 58.8069 242.632 61.2297 242.632 63.8848C242.632 66.5067 242.134 68.9295 241.138 71.1532C240.176 73.3768 238.815 75.3184 237.056 76.9778C235.297 78.6041 233.222 79.8652 230.833 80.7613C228.443 81.6575 225.838 82.1055 223.017 82.1055ZM222.967 72.5969C224.062 72.5969 225.075 72.3977 226.004 71.9995C226.966 71.6012 227.796 71.037 228.493 70.3068C229.223 69.5435 229.787 68.6308 230.186 67.5688C230.584 66.4735 230.783 65.2455 230.783 63.8848C230.783 62.524 230.584 61.3126 230.186 60.2506C229.787 59.1554 229.223 58.2427 228.493 57.5125C227.796 56.7492 226.966 56.1684 226.004 55.7701C225.075 55.3718 224.062 55.1727 222.967 55.1727C221.872 55.1727 220.843 55.3718 219.881 55.7701C218.951 56.1684 218.122 56.7492 217.391 57.5125C216.694 58.2427 216.147 59.1554 215.749 60.2506C215.35 61.3126 215.151 62.524 215.151 63.8848C215.151 65.2455 215.35 66.4735 215.749 67.5688C216.147 68.6308 216.694 69.5435 217.391 70.3068C218.122 71.037 218.951 71.6012 219.881 71.9995C220.843 72.3977 221.872 72.5969 222.967 72.5969Z" fill="#201A6E"/>
<path d="M164.684 81.3091V46.4607H174.342L192.064 67.6684H187.584V46.4607H199.034V81.3091H189.376L171.653 60.1013H176.134V81.3091H164.684Z" fill="#201A6E"/>
<path d="M138.545 81.3091V66.0256L141.233 73.045L125.402 46.4607H137.798L148.502 64.6316H141.283L152.086 46.4607H163.437L147.705 73.045L150.294 66.0256V81.3091H138.545Z" fill="#201A6E"/>
<path d="M110.588 82.1055C107.668 82.1055 104.847 81.7736 102.125 81.1098C99.4036 80.4461 97.1633 79.5831 95.4043 78.5211L99.1878 69.9584C100.847 70.9208 102.689 71.7008 104.714 72.2982C106.771 72.8624 108.763 73.1445 110.688 73.1445C111.816 73.1445 112.696 73.0781 113.326 72.9454C113.99 72.7794 114.471 72.5637 114.77 72.2982C115.069 71.9995 115.218 71.651 115.218 71.2527C115.218 70.6221 114.87 70.1243 114.173 69.7592C113.476 69.3941 112.546 69.0954 111.385 68.8631C110.256 68.5976 109.012 68.3321 107.651 68.0666C106.29 67.7679 104.913 67.3862 103.519 66.9216C102.158 66.4569 100.897 65.8429 99.7354 65.0796C98.607 64.3162 97.6943 63.3206 96.9974 62.0926C96.3004 60.8314 95.9519 59.2715 95.9519 57.4129C95.9519 55.2557 96.5493 53.2975 97.7441 51.5385C98.9721 49.7463 100.781 48.3192 103.17 47.2571C105.593 46.1951 108.597 45.6641 112.181 45.6641C114.538 45.6641 116.861 45.913 119.151 46.4108C121.441 46.9086 123.499 47.672 125.324 48.7008L121.789 57.2138C120.064 56.3509 118.388 55.7037 116.761 55.2723C115.168 54.8408 113.608 54.6251 112.082 54.6251C110.953 54.6251 110.057 54.7246 109.393 54.9238C108.73 55.1229 108.248 55.3884 107.95 55.7203C107.684 56.0522 107.551 56.4173 107.551 56.8155C107.551 57.4129 107.9 57.8942 108.597 58.2593C109.294 58.5911 110.207 58.8733 111.335 59.1056C112.497 59.3379 113.758 59.5868 115.118 59.8523C116.512 60.1178 117.89 60.4829 119.251 60.9476C120.611 61.4122 121.856 62.0262 122.984 62.7895C124.146 63.5529 125.075 64.5486 125.772 65.7765C126.469 67.0045 126.818 68.5312 126.818 70.3566C126.818 72.4807 126.204 74.4389 124.976 76.2311C123.781 77.9901 121.989 79.4172 119.599 80.5124C117.209 81.5745 114.206 82.1055 110.588 82.1055Z" fill="#201A6E"/>
<path d="M70.3172 37.0909C69.0626 36.5004 67.6802 36.0993 66.3272 35.8533C64.6766 35.5654 63.1564 35.5211 61.6018 35.5408C55.9367 35.6023 46.3849 35.7696 40.0211 35.8213C45.3591 31.0432 50.7291 26.3045 56.1359 21.6445C61.5354 17.0411 61.8847 8.68557 56.8763 3.65405C52.0845 -1.20278 44.262 -1.21262 39.4209 3.59254C33.5467 9.42123 27.5495 15.1171 21.54 20.803C16.9892 25.094 12.0079 29.786 7.39065 34.0498C5.57279 35.8066 3.9714 37.4206 2.6775 39.8072C0.584128 43.6724 0.411936 48.1184 2.45611 52.2297C3.26049 53.5288 4.21001 54.7885 5.37846 55.7604C7.18156 57.308 9.41761 58.3143 11.7373 58.7695C13.1566 59.0376 14.1431 59.0942 15.3976 59.141C17.4246 59.1434 23.0011 59.1582 25.0847 59.1705C28.681 59.1902 32.6316 59.2197 36.7077 59.2566C31.3279 63.5426 19.6188 69.5706 15.8428 75.3772C4.39204 92.9862 26.4671 108.984 41.3003 94.1475C55.1249 80.3201 74.5162 59.6035 76.7006 54.7688C79.7263 48.0741 77.0229 40.2131 70.3147 37.0884L70.3172 37.0909ZM62.0298 59.606C62.1725 59.6109 62.3348 59.6183 62.3521 59.6306C62.2512 59.6306 62.143 59.6208 62.0298 59.606Z" fill="url(#paint0_linear_440_1315)"/>
<path fill-rule="evenodd" clip-rule="evenodd" d="M11.5193 58.771C9.20668 58.2421 6.94834 57.3096 5.13919 55.7621V55.7596C3.96683 54.7878 3.01412 53.5281 2.20704 52.2291C0.156019 48.1179 0.328789 43.6721 2.42918 39.807C3.72742 37.4205 5.33417 35.8065 7.15813 34.0498C11.7908 29.7861 16.7888 25.0943 21.3549 20.8035C27.3845 15.1177 33.4018 9.42211 39.2958 3.59363C44.1531 -1.21136 52.0017 -1.20151 56.8097 3.65514C61.8348 8.68648 61.4843 17.0417 56.0668 21.6449C50.6418 26.3048 45.2538 31.0433 39.898 35.8212C43.6266 35.7911 48.4459 35.7215 52.9426 35.6565C56.1462 35.6103 59.1861 35.5664 61.551 35.5408C63.1108 35.5211 64.6361 35.5654 66.2923 35.8532C67.6497 36.0993 69.0368 36.5003 70.2956 37.0908C71.1051 37.4672 71.8579 37.915 72.549 38.4193C72.549 38.4193 27.0958 62.3311 11.5193 58.771ZM15.6388 75.3781C16.162 74.5785 16.7815 73.7174 17.6231 72.9694H17.6207C30.297 61.7283 77.8778 47.8816 77.8778 47.8816C78.0851 50.1624 77.7149 52.5316 76.7005 54.7705C74.5088 59.605 55.0525 80.3208 41.1815 94.1478C26.2986 108.983 4.14957 92.9865 15.6388 75.3781ZM61.9781 59.605C62.1212 59.6099 62.2841 59.6173 62.3014 59.6296C62.2002 59.6296 62.0916 59.6198 61.9781 59.605Z" fill="url(#paint1_linear_440_1315)"/>
<defs>
<linearGradient id="paint0_linear_440_1315" x1="77.9329" y1="33.9055" x2="32.7452" y2="64.4006" gradientUnits="userSpaceOnUse">
<stop stop-color="#FF088D"/>
<stop offset="1" stop-color="#FBFF00"/>
</linearGradient>
<linearGradient id="paint1_linear_440_1315" x1="59.8487" y1="0.00121919" x2="31.8572" y2="100.765" gradientUnits="userSpaceOnUse">
<stop stop-color="#FF088D"/>
<stop offset="1" stop-color="#F67921"/>
</linearGradient>
</defs>
</svg>

