<svg width="18" height="18" viewBox="0 0 18 18" fill="none" xmlns="http://www.w3.org/2000/svg">
    <path d="M9 16.5C13.1419 16.5 16.5 13.1419 16.5 9C16.5 4.85813 13.1419 1.5 9 1.5C4.85813 1.5 1.5 4.85813 1.5 9C1.5 13.1419 4.85813 16.5 9 16.5ZM9 15.25C5.55375 15.25 2.75 12.4462 2.75 9C2.75 5.55375 5.55375 2.75 9 2.75C12.4462 2.75 15.25 5.55375 15.25 9C15.25 12.4462 12.4462 15.25 9 15.25Z" fill="#343536"/>
    <path d="M11.625 5.8125L9 8.4375L6.375 5.8125L5.8125 6.375L8.4375 9L5.8125 11.625L6.375 12.1875L9 9.5625L11.625 12.1875L12.1875 11.625L9.5625 9L12.1875 6.375L11.625 5.8125Z" fill="#343536"/>
</svg>
