<svg width="18" height="18" viewBox="0 0 18 18" fill="none" xmlns="http://www.w3.org/2000/svg">
<path d="M9 2.75C12.4462 2.75 15.25 5.55375 15.25 9C15.25 12.4462 12.4462 15.25 9 15.25C5.55375 15.25 2.75 12.4462 2.75 9C2.75 5.55375 5.55375 2.75 9 2.75ZM9 1.5C4.85813 1.5 1.5 4.85813 1.5 9C1.5 13.1419 4.85813 16.5 9 16.5C13.1419 16.5 16.5 13.1419 16.5 9C16.5 4.85813 13.1419 1.5 9 1.5ZM13.0625 6.98625C12.7869 7.10875 12.49 7.19125 12.1788 7.22875C12.4969 7.03813 12.74 6.73688 12.8556 6.3775C12.5581 6.55375 12.2287 6.68188 11.8781 6.75063C11.5981 6.45125 11.1975 6.26438 10.7556 6.26438C9.76188 6.26438 9.03188 7.19125 9.25625 8.15375C7.97812 8.08938 6.84375 7.47688 6.085 6.54625C5.68188 7.2375 5.87625 8.1425 6.56125 8.60063C6.30937 8.5925 6.0725 8.52313 5.865 8.40813C5.84812 9.12063 6.35938 9.7875 7.09937 9.93625C6.88312 9.995 6.64563 10.0087 6.40438 9.9625C6.6 10.5737 7.16938 11.0181 7.84188 11.0306C7.19375 11.5381 6.37937 11.765 5.5625 11.6688C6.24375 12.1056 7.05187 12.36 7.92062 12.36C10.7781 12.36 12.3919 9.94687 12.2944 7.7825C12.5956 7.56625 12.8562 7.295 13.0625 6.98625Z" fill="#343536"/>
</svg>
