<svg width="323" height="323" viewBox="0 0 323 323" fill="none" xmlns="http://www.w3.org/2000/svg">
<g id="VoiceGlobe">
<g id="Ellipse 184" opacity="0.5" filter="url(#filter0_f_3091_875)">
<circle cx="161.502" cy="161.502" r="111.502" fill="url(#paint0_linear_3091_875)"/>
</g>
<circle id="Ellipse 188" cx="161.503" cy="161.502" r="102.663" fill="white"/>
<circle id="Ellipse 181" cx="161.503" cy="161.502" r="102.163" fill="url(#paint1_linear_3091_875)" stroke="url(#paint2_linear_3091_875)"/>
<g id="Ellipse 185" filter="url(#filter1_f_3091_875)">
<circle cx="161.501" cy="161.502" r="96.4886" stroke="url(#paint3_linear_3091_875)"/>
</g>
<g id="Ellipse 186" filter="url(#filter2_f_3091_875)">
<circle cx="161.503" cy="161.502" r="96.7386" stroke="url(#paint4_linear_3091_875)" stroke-width="0.5"/>
</g>
<path id="Ellipse 182" d="M246.96 161.502C246.96 208.7 208.699 246.961 161.501 246.961C114.304 246.961 76.043 208.7 76.043 161.502C76.043 114.305 107.873 181.693 155.071 181.693C202.268 181.693 246.96 114.305 246.96 161.502Z" fill="url(#paint5_linear_3091_875)"/>
<path id="Ellipse 183" d="M246.96 161.502C246.96 208.699 172.686 144.128 125.489 144.128C78.2916 144.128 76.043 208.699 76.043 161.502C76.043 114.304 114.304 76.0435 161.501 76.0435C208.699 76.0435 246.96 114.304 246.96 161.502Z" fill="url(#paint6_linear_3091_875)"/>
<path id="Ellipse 187" d="M246.96 161.502C246.96 182.563 212.391 222.548 165.194 222.548C117.996 222.548 76.043 190.179 76.043 161.502C76.043 114.305 97.052 170.187 144.249 170.187C191.447 170.187 246.96 114.305 246.96 161.502Z" fill="url(#paint7_linear_3091_875)"/>
<g id="Ellipse 189" style="mix-blend-mode:screen">
<circle cx="161.501" cy="161.502" r="85.4585" fill="url(#paint8_linear_3091_875)"/>
</g>
</g>
<defs>
<filter id="filter0_f_3091_875" x="0" y="0" width="323.004" height="323.004" filterUnits="userSpaceOnUse" color-interpolation-filters="sRGB">
<feFlood flood-opacity="0" result="BackgroundImageFix"/>
<feBlend mode="normal" in="SourceGraphic" in2="BackgroundImageFix" result="shape"/>
<feGaussianBlur stdDeviation="25" result="effect1_foregroundBlur_3091_875"/>
</filter>
<filter id="filter1_f_3091_875" x="58.0127" y="58.0133" width="206.978" height="206.977" filterUnits="userSpaceOnUse" color-interpolation-filters="sRGB">
<feFlood flood-opacity="0" result="BackgroundImageFix"/>
<feBlend mode="normal" in="SourceGraphic" in2="BackgroundImageFix" result="shape"/>
<feGaussianBlur stdDeviation="3.25" result="effect1_foregroundBlur_3091_875"/>
</filter>
<filter id="filter2_f_3091_875" x="61.2146" y="61.2133" width="200.578" height="200.577" filterUnits="userSpaceOnUse" color-interpolation-filters="sRGB">
<feFlood flood-opacity="0" result="BackgroundImageFix"/>
<feBlend mode="normal" in="SourceGraphic" in2="BackgroundImageFix" result="shape"/>
<feGaussianBlur stdDeviation="1.65" result="effect1_foregroundBlur_3091_875"/>
</filter>
<linearGradient id="paint0_linear_3091_875" x1="-5.19348" y1="322.622" x2="285.827" y2="29.9297" gradientUnits="userSpaceOnUse">
<stop stop-color="#534AD8"/>
<stop offset="1" stop-color="#834C9D"/>
</linearGradient>
<linearGradient id="paint1_linear_3091_875" x1="8.56219" y1="317.037" x2="276.215" y2="40.2332" gradientUnits="userSpaceOnUse">
<stop stop-color="#25253A"/>
<stop offset="1" stop-color="#6437B2"/>
</linearGradient>
<linearGradient id="paint2_linear_3091_875" x1="8.02151" y1="309.85" x2="275.973" y2="40.3592" gradientUnits="userSpaceOnUse">
<stop stop-color="#534AD8"/>
<stop offset="1" stop-color="#834C9D"/>
</linearGradient>
<linearGradient id="paint3_linear_3091_875" x1="17.0141" y1="308.44" x2="269.873" y2="46.9363" gradientUnits="userSpaceOnUse">
<stop stop-color="#25253A"/>
<stop offset="1" stop-color="#6437B2"/>
</linearGradient>
<linearGradient id="paint4_linear_3091_875" x1="17.0161" y1="308.44" x2="269.875" y2="46.9363" gradientUnits="userSpaceOnUse">
<stop stop-color="#25253A"/>
<stop offset="1" stop-color="#6437B2"/>
</linearGradient>
<linearGradient id="paint5_linear_3091_875" x1="85.1075" y1="209.866" x2="252.268" y2="182.632" gradientUnits="userSpaceOnUse">
<stop stop-color="#DD14A5"/>
<stop offset="1" stop-color="#DD14A5" stop-opacity="0"/>
</linearGradient>
<linearGradient id="paint6_linear_3091_875" x1="242.407" y1="176.058" x2="91.6813" y2="117.364" gradientUnits="userSpaceOnUse">
<stop stop-color="#C171FF"/>
<stop offset="1" stop-color="#534AD8" stop-opacity="0"/>
</linearGradient>
<linearGradient id="paint7_linear_3091_875" x1="242.407" y1="176.058" x2="91.6813" y2="117.365" gradientUnits="userSpaceOnUse">
<stop stop-color="#54ECD0"/>
<stop offset="1" stop-color="#534AD8" stop-opacity="0"/>
</linearGradient>
<linearGradient id="paint8_linear_3091_875" x1="161.501" y1="76.0434" x2="264.203" y2="174.947" gradientUnits="userSpaceOnUse">
<stop offset="0.445" stop-color="white" stop-opacity="0.11"/>
<stop offset="0.4451" stop-opacity="0"/>
</linearGradient>
</defs>
</svg>
