<?xml version="1.0" encoding="UTF-8"?>
<svg xmlns="http://www.w3.org/2000/svg" xmlns:xlink="http://www.w3.org/1999/xlink" version="1.1" viewBox="0 0 264.9 297">
  <defs>
    <style>
      .cls-1 {
        fill: url(#linear-gradient-3);
      }

      .cls-1, .cls-2, .cls-3, .cls-4 {
        fill-rule: evenodd;
      }

      .cls-2 {
        fill: url(#linear-gradient-6);
      }

      .cls-3 {
        fill: #fff;
      }

      .cls-5 {
        fill: url(#linear-gradient-5);
      }

      .cls-6 {
        fill: url(#linear-gradient-4);
      }

      .cls-7 {
        fill: url(#linear-gradient-2);
      }

      .cls-8 {
        fill: url(#linear-gradient);
      }
    </style>
    <linearGradient id="linear-gradient" x1="-691.7" y1="204.1" x2="-798.4" y2="132.1" gradientTransform="translate(0 298) scale(1 -1)" gradientUnits="userSpaceOnUse">
      <stop offset="0" stop-color="#000"/>
      <stop offset="1" stop-color="#000" stop-opacity="0"/>
    </linearGradient>
    <linearGradient id="linear-gradient-2" x1="-390.1" y1="204.1" x2="-496.8" y2="132.1" gradientTransform="translate(0 298) scale(1 -1)" gradientUnits="userSpaceOnUse">
      <stop offset="0" stop-color="#616161"/>
      <stop offset="1" stop-color="#e2e2e2"/>
    </linearGradient>
    <linearGradient id="linear-gradient-3" x1="-437.5" y1="271.9" x2="-503.6" y2="34" gradientTransform="translate(0 298) scale(1 -1)" gradientUnits="userSpaceOnUse">
      <stop offset="0" stop-color="#616161"/>
      <stop offset="1" stop-color="#959595"/>
    </linearGradient>
    <linearGradient id="linear-gradient-4" x1="-90.3" y1="204.1" x2="-197" y2="132.1" gradientTransform="translate(0 298) scale(1 -1)" gradientUnits="userSpaceOnUse">
      <stop offset="0" stop-color="#fff"/>
      <stop offset="1" stop-color="#fff" stop-opacity="0"/>
    </linearGradient>
    <linearGradient id="linear-gradient-5" x1="212.3" y1="204.1" x2="105.6" y2="132.1" gradientTransform="translate(0 298) scale(1 -1)" gradientUnits="userSpaceOnUse">
      <stop offset="0" stop-color="#ff088d"/>
      <stop offset="1" stop-color="#fbff00"/>
    </linearGradient>
    <linearGradient id="linear-gradient-6" x1="165" y1="271.9" x2="98.9" y2="34" gradientTransform="translate(0 298) scale(1 -1)" gradientUnits="userSpaceOnUse">
      <stop offset="0" stop-color="#ff088d"/>
      <stop offset="1" stop-color="#f67921"/>
    </linearGradient>
  </defs>
  <!-- Generator: Adobe Illustrator 28.7.5, SVG Export Plug-In . SVG Version: 1.2.0 Build 176)  -->
  <g>
    <g id="Layer_1">
      <g>
        <path class="cls-8" d="M-698.4,118c-3-1.4-6.2-2.3-9.4-2.9-3.9-.7-7.5-.8-11.2-.7-13.4.1-35.9.5-51,.7,12.6-11.3,25.3-22.5,38-33.5,12.7-10.9,13.6-30.6,1.7-42.5-11.3-11.5-29.8-11.5-41.2-.1-13.9,13.8-28,27.2-42.2,40.6-10.7,10.1-22.5,21.2-33.4,31.3-4.3,4.1-8.1,8-11.1,13.6-4.9,9.1-5.3,19.6-.5,29.3,1.9,3.1,4.1,6,6.9,8.3,4.3,3.7,9.5,6,15,7.1,3.4.6,5.7.8,8.6.9,4.8,0,18,0,22.9,0,8.5,0,17.8.1,27.4.2-12.7,10.1-40.3,24.4-49.3,38.1-27,41.6,25.1,79.3,60.1,44.3,32.6-32.6,78.4-81.6,83.6-93,7.1-15.8.8-34.4-15.1-41.7h0ZM-718,171.2c.3,0,.7,0,.8,0-.2,0-.5,0-.8,0Z"/>
        <path class="cls-4" d="M-837.2,169.2c-5.5-1.2-10.8-3.4-15.1-7.1h0c-2.8-2.3-5-5.3-6.9-8.3-4.8-9.7-4.4-20.2.5-29.3,3.1-5.6,6.9-9.4,11.2-13.6,10.9-10.1,22.7-21.1,33.5-31.3,14.2-13.4,28.4-26.9,42.4-40.6,11.5-11.3,30-11.3,41.4.1,11.9,11.9,11,31.6-1.8,42.5-12.8,11-25.5,22.2-38.2,33.5,8.8,0,20.2-.2,30.8-.4,7.6-.1,14.7-.2,20.3-.3,3.7,0,7.3,0,11.2.7,3.2.6,6.5,1.5,9.5,2.9,1.9.9,3.7,1.9,5.3,3.1,0,0-107.3,56.5-144.1,48.1ZM-827.5,208.4c1.2-1.9,2.7-3.9,4.7-5.7h0c29.9-26.5,142.3-59.2,142.3-59.2.5,5.4-.4,11-2.8,16.3-5.2,11.4-51.1,60.3-83.9,93-35.1,35-87.4-2.7-60.3-44.3ZM-718.1,171.2c.3,0,.7,0,.8,0-.2,0-.5,0-.8,0Z"/>
      </g>
      <g>
        <path class="cls-7" d="M-396.9,118c-3-1.4-6.2-2.3-9.4-2.9-3.9-.7-7.5-.8-11.2-.7-13.4.1-35.9.5-51,.7,12.6-11.3,25.3-22.5,38-33.5,12.7-10.9,13.6-30.6,1.7-42.5-11.3-11.5-29.8-11.5-41.2-.1-13.9,13.8-28,27.2-42.2,40.6-10.7,10.1-22.5,21.2-33.4,31.3-4.3,4.1-8.1,8-11.1,13.6-4.9,9.1-5.3,19.6-.5,29.3,1.9,3.1,4.1,6,6.9,8.3,4.3,3.7,9.5,6,15,7.1,3.4.6,5.7.8,8.6.9,4.8,0,18,0,22.9,0,8.5,0,17.8.1,27.4.2-12.7,10.1-40.3,24.4-49.3,38.1-27,41.6,25.1,79.3,60.1,44.3,32.6-32.6,78.4-81.6,83.6-93,7.1-15.8.8-34.4-15.1-41.7h0ZM-416.4,171.2c.3,0,.7,0,.8,0-.2,0-.5,0-.8,0Z"/>
        <path class="cls-1" d="M-535.7,169.2c-5.5-1.2-10.8-3.4-15.1-7.1h0c-2.8-2.3-5-5.3-6.9-8.3-4.8-9.7-4.4-20.2.5-29.3,3.1-5.6,6.9-9.4,11.2-13.6,10.9-10.1,22.7-21.1,33.5-31.3,14.2-13.4,28.4-26.9,42.4-40.6,11.5-11.3,30-11.3,41.4.1,11.9,11.9,11,31.6-1.8,42.5-12.8,11-25.5,22.2-38.2,33.5,8.8,0,20.2-.2,30.8-.4,7.6-.1,14.7-.2,20.3-.3,3.7,0,7.3,0,11.2.7,3.2.6,6.5,1.5,9.5,2.9,1.9.9,3.7,1.9,5.3,3.1,0,0-107.3,56.5-144.1,48.1ZM-526,208.4c1.2-1.9,2.7-3.9,4.7-5.7h0c29.9-26.5,142.3-59.2,142.3-59.2.5,5.4-.4,11-2.8,16.3-5.2,11.4-51.1,60.3-83.9,93-35.1,35-87.4-2.7-60.3-44.3ZM-416.6,171.2c.3,0,.7,0,.8,0-.2,0-.5,0-.8,0Z"/>
      </g>
      <g>
        <path class="cls-6" d="M-97,118c-3-1.4-6.2-2.3-9.4-2.9-3.9-.7-7.5-.8-11.2-.7-13.4.1-35.9.5-51,.7,12.6-11.3,25.3-22.5,38-33.5,12.7-10.9,13.6-30.6,1.7-42.5-11.3-11.5-29.8-11.5-41.2-.1-13.9,13.8-28,27.2-42.2,40.6-10.7,10.1-22.5,21.2-33.4,31.3-4.3,4.1-8.1,8-11.1,13.6-4.9,9.1-5.3,19.6-.5,29.3,1.9,3.1,4.1,6,6.9,8.3,4.3,3.7,9.5,6,15,7.1,3.4.6,5.7.8,8.6.9,4.8,0,18,0,22.9,0,8.5,0,17.8.1,27.4.2-12.7,10.1-40.3,24.4-49.3,38.1-27,41.6,25.1,79.3,60.1,44.3,32.6-32.6,78.4-81.6,83.6-93,7.1-15.8.8-34.4-15.1-41.7h0ZM-116.6,171.2c.3,0,.7,0,.8,0-.2,0-.5,0-.8,0Z"/>
        <path class="cls-3" d="M-235.8,169.2c-5.5-1.2-10.8-3.4-15.1-7.1h0c-2.8-2.3-5-5.3-6.9-8.3-4.8-9.7-4.4-20.2.5-29.3,3.1-5.6,6.9-9.4,11.2-13.6,10.9-10.1,22.7-21.1,33.5-31.3,14.2-13.4,28.4-26.9,42.4-40.6,11.5-11.3,30-11.3,41.4.1,11.9,11.9,11,31.6-1.8,42.5-12.8,11-25.5,22.2-38.2,33.5,8.8,0,20.2-.2,30.8-.4,7.6-.1,14.7-.2,20.3-.3,3.7,0,7.3,0,11.2.7,3.2.6,6.5,1.5,9.5,2.9,1.9.9,3.7,1.9,5.3,3.1,0,0-107.3,56.5-144.1,48.1ZM-226.1,208.4c1.2-1.9,2.7-3.9,4.7-5.7h0c29.9-26.5,142.3-59.2,142.3-59.2.5,5.4-.4,11-2.8,16.3-5.2,11.4-51.1,60.3-83.9,93-35.1,35-87.4-2.7-60.3-44.3ZM-116.7,171.2c.3,0,.7,0,.8,0-.2,0-.5,0-.8,0Z"/>
      </g>
      <g>
        <path class="cls-5" d="M205.6,118c-3-1.4-6.2-2.3-9.4-2.9-3.9-.7-7.5-.8-11.2-.7-13.4.1-35.9.5-51,.7,12.6-11.3,25.3-22.5,38-33.5,12.7-10.9,13.6-30.6,1.7-42.5-11.3-11.5-29.8-11.5-41.2-.1-13.9,13.8-28,27.2-42.2,40.6-10.7,10.1-22.5,21.2-33.4,31.3-4.3,4.1-8.1,8-11.1,13.6-4.9,9.1-5.3,19.6-.5,29.3,1.9,3.1,4.1,6,6.9,8.3,4.3,3.7,9.5,6,15,7.1,3.4.6,5.7.8,8.6.9,4.8,0,18,0,22.9,0,8.5,0,17.8.1,27.4.2-12.7,10.1-40.3,24.4-49.3,38.1-27,41.6,25.1,79.3,60.1,44.3,32.6-32.6,78.4-81.6,83.6-93,7.1-15.8.8-34.4-15.1-41.7h0ZM186,171.2c.3,0,.7,0,.8,0-.2,0-.5,0-.8,0Z"/>
        <path class="cls-2" d="M66.7,169.2c-5.5-1.2-10.8-3.4-15.1-7.1h0c-2.8-2.3-5-5.3-6.9-8.3-4.8-9.7-4.4-20.2.5-29.3,3.1-5.6,6.9-9.4,11.2-13.6,10.9-10.1,22.7-21.1,33.5-31.3,14.2-13.4,28.4-26.9,42.4-40.6,11.5-11.3,30-11.3,41.4.1,11.9,11.9,11,31.6-1.8,42.5-12.8,11-25.5,22.2-38.2,33.5,8.8,0,20.2-.2,30.8-.4,7.6-.1,14.7-.2,20.3-.3,3.7,0,7.3,0,11.2.7,3.2.6,6.5,1.5,9.5,2.9,1.9.9,3.7,1.9,5.3,3.1,0,0-107.3,56.5-144.1,48.1ZM76.5,208.4c1.2-1.9,2.7-3.9,4.7-5.7h0c29.9-26.5,142.3-59.2,142.3-59.2.5,5.4-.4,11-2.8,16.3-5.2,11.4-51.1,60.3-83.9,93-35.1,35-87.4-2.7-60.3-44.3ZM185.9,171.2c.3,0,.7,0,.8,0-.2,0-.5,0-.8,0Z"/>
      </g>
    </g>
  </g>
</svg>
