<svg width="465" height="89" viewBox="0 0 465 89" fill="none" xmlns="http://www.w3.org/2000/svg">
<path d="M90.7664 66.5127C89.9284 69.3726 88.1523 71.8898 85.7068 73.6831C83.2614 75.4764 80.28 76.4481 77.2141 76.451C76.079 76.4482 74.9486 76.3087 73.849 76.0357C72.0123 75.6743 70.2918 74.8909 68.8319 73.7513C67.4859 72.7776 66.3263 71.5828 65.4056 70.221C65.1608 69.865 64.9161 69.5387 64.6713 69.153L56.9315 57.494C55.4952 54.8491 53.5171 52.5165 51.1183 50.6393C48.7196 48.762 45.9507 47.3795 42.9815 46.5767C37.9775 48.2425 32.6175 48.6407 27.4102 47.7337L42.7062 73.2173C55.5549 93.984 90.0322 90.7503 90.9194 65.8007C90.8801 66.0402 90.8291 66.2778 90.7664 66.5127Z" fill="url(#paint0_linear_3182_22246)"/>
<path d="M3.08984 17.8V53.1033C3.08984 66.2753 16.3668 71.4373 24.1678 71.4373V14.151C21.8276 13.3588 19.3656 12.9575 16.8869 12.9643C11.8387 12.9194 6.94199 14.6356 3.08984 17.8Z" fill="url(#paint1_linear_3182_22246)"/>
<path d="M43.0744 46.5767C46.8878 45.3529 50.2405 43.0586 52.7077 39.9848C55.1749 36.9109 56.6453 33.1959 56.9327 29.3107C57.3609 12.727 44.6958 2.96669 29.3998 2.96669C24.0821 2.9617 18.8596 4.33401 14.2719 6.94177C9.68434 9.54952 5.89813 13.2981 3.30469 17.8C7.0835 14.6393 11.8975 12.8834 16.8876 12.8457C19.3663 12.8389 21.8282 13.2401 24.1685 14.0324C27.962 15.2761 31.232 17.6887 33.4799 20.9024C35.7279 24.1161 36.8304 27.9545 36.6195 31.8324C36.4988 34.9822 35.6028 38.0584 34.0063 40.804C32.4097 43.5496 30.1589 45.885 27.4419 47.615C32.6586 48.5706 38.0408 48.2131 43.0744 46.5767Z" fill="white"/>
<path d="M77.2154 71.6153C79.0432 71.6446 80.8384 71.1439 82.3709 70.1773C83.9034 69.2108 85.1033 67.8224 85.8168 66.1903C86.5303 64.5581 86.7249 62.7565 86.3757 61.0163C86.0265 59.2762 85.1493 57.6768 83.8566 56.4233C82.564 55.1697 80.9148 54.3191 79.1203 53.9804C77.3259 53.6418 75.4681 53.8305 73.785 54.5224C72.1019 55.2144 70.6702 56.378 69.6735 57.8641C68.6768 59.3502 68.1605 61.0911 68.1907 62.8637C68.1907 65.1847 69.1415 67.4108 70.834 69.052C72.5264 70.6933 74.8219 71.6153 77.2154 71.6153Z" fill="white"/>
<path d="M456.066 19.3427H458.514V20.0844H457.688V23.2884H456.892V20.0844H456.066V19.3427ZM460.686 22.1017L461.206 19.3427H462.307V23.2587H461.542V20.4997L461.053 23.2587H460.288L459.707 20.4997V23.2587H459.003V19.3427H460.105L460.686 22.1017Z" fill="white"/>
<path d="M133.412 66.3939V19.3426H154.062C156.749 19.3284 159.39 20.0149 161.71 21.3302C164.01 22.6369 165.936 24.4833 167.308 26.6999C168.688 29.0157 169.396 31.6501 169.358 34.3242C169.374 37.1781 168.452 39.9628 166.727 42.2749C165.057 44.6244 162.734 46.4659 160.027 47.5852L171.316 66.4532H162.138L151.89 48.6532H140.968V66.4532L133.412 66.3939ZM140.907 41.7112H154.827C155.773 41.7339 156.713 41.5542 157.58 41.1851C158.448 40.8159 159.22 40.2663 159.844 39.5752C161.167 38.1098 161.867 36.2117 161.802 34.2649C161.84 33.1952 161.635 32.1304 161.201 31.146C160.768 30.1617 160.116 29.2818 159.293 28.5689C157.526 27.0543 155.225 26.2575 152.869 26.3439H140.968L140.907 41.7112Z" fill="white"/>
<path d="M210.229 67.0466C207.059 67.0931 203.912 66.506 200.986 65.3218C198.06 64.1377 195.416 62.382 193.22 60.164C191.056 57.955 189.361 55.3541 188.234 52.51C187.045 49.4278 186.453 46.1589 186.49 42.8683C186.453 39.5777 187.045 36.3089 188.234 33.2266C189.361 30.3825 191.056 27.7816 193.22 25.5726C196.616 22.2789 200.944 20.0381 205.656 19.1348C210.368 18.2316 215.25 18.7066 219.682 20.4996C222.536 21.6791 225.108 23.4161 227.239 25.6023C229.417 27.8117 231.114 30.4252 232.225 33.286C233.434 36.343 234.036 39.5943 233.999 42.8683C234.036 46.1424 233.434 49.3936 232.225 52.4506C231.114 55.3114 229.417 57.9249 227.239 60.1343C225.108 62.3205 222.536 64.0575 219.682 65.237C216.695 66.4703 213.476 67.0867 210.229 67.0466ZM210.229 60.0156C213.166 60.064 216.055 59.2916 218.55 57.7906C221.006 56.2994 222.994 54.1863 224.302 51.6793C225.727 48.9196 226.441 45.8655 226.382 42.7793C226.441 39.6931 225.727 36.6391 224.302 33.8793C222.994 31.3724 221.006 29.2592 218.55 27.768C216.028 26.3131 213.148 25.5452 210.214 25.5452C207.28 25.5452 204.4 26.3131 201.878 27.768C199.47 29.2188 197.505 31.2672 196.188 33.7013C194.743 36.4544 194.028 39.5132 194.107 42.6013C194.028 45.6895 194.743 48.7482 196.188 51.5013C197.483 53.9898 199.449 56.0915 201.878 57.583C204.359 59.1625 207.261 60.0078 210.229 60.0156Z" fill="white"/>
<path d="M249.846 66.394V61.0837L276.583 26.344H251.651V19.3427H286.77V24.5937L260.155 59.3927H287.535V66.394H249.846Z" fill="white"/>
<path d="M308.613 66.394V59.6597H316.414V26.0177H308.613V19.3427H331.741V26.0177H323.909V59.6597H331.741V66.394H308.613Z" fill="white"/>
<path d="M354.502 66.394V19.3427H385.094V26.344H362.028V38.7744H381.209V45.746H361.966V59.3927H385.033V66.394H354.502Z" fill="white"/>
<path d="M406.355 44.0254L416.298 19.3427H420.673L430.523 44.0254H425.659L423.487 38.3294H413.269L411.067 44.0254H406.355ZM416.512 30.0524L414.86 34.3837H421.988L420.244 29.9337C420.067 29.5071 419.913 29.0714 419.785 28.6284L419.112 26.6407L418.439 24.6234C418.164 25.543 417.828 26.4924 417.491 27.59L416.512 30.0524Z" fill="white"/>
<path d="M436.641 44.0254V39.961H440.801V23.407H436.641V19.3427H449.642V23.407H445.451V39.961H449.612V44.0254H436.641Z" fill="white"/>
<defs>
<linearGradient id="paint0_linear_3182_22246" x1="54.6737" y1="76.9667" x2="62.5912" y2="40.8088" gradientUnits="userSpaceOnUse">
<stop offset="0.34" stop-color="white"/>
<stop offset="0.4" stop-color="#F6F6F6"/>
<stop offset="0.48" stop-color="#DEDDDD"/>
<stop offset="0.59" stop-color="#B6B5B5"/>
<stop offset="0.72" stop-color="#7F7D7E"/>
<stop offset="0.86" stop-color="#3A3738"/>
<stop offset="0.9" stop-color="#231F20"/>
</linearGradient>
<linearGradient id="paint1_linear_3182_22246" x1="19.1499" y1="58.3067" x2="4.5737" y2="-8.25769" gradientUnits="userSpaceOnUse">
<stop offset="0.25" stop-color="white"/>
<stop offset="0.31" stop-color="#F6F6F6"/>
<stop offset="0.41" stop-color="#DEDEDE"/>
<stop offset="0.53" stop-color="#B7B6B6"/>
<stop offset="0.66" stop-color="#817F7F"/>
<stop offset="0.82" stop-color="#3C393A"/>
<stop offset="0.87" stop-color="#231F20"/>
</linearGradient>
</defs>
</svg>
