<svg width="30" height="29" viewBox="0 0 30 29" fill="none" xmlns="http://www.w3.org/2000/svg">
<path d="M29.2697 21.8634C29.0009 22.8047 28.4283 23.6334 27.6391 24.2234C26.85 24.8134 25.8874 25.1323 24.898 25.1317C24.5322 25.1345 24.1675 25.0919 23.8125 25.0048C23.2195 24.882 22.6647 24.6211 22.1941 24.2438C21.7656 23.9272 21.398 23.5374 21.1086 23.0926L20.8717 22.7512L18.4046 18.8975C17.9432 18.0292 17.3068 17.2635 16.5345 16.6477C15.7623 16.0318 14.8706 15.579 13.9145 15.317C12.2949 15.8561 10.5641 15.9836 8.88159 15.6877L13.8158 24.0585C17.9605 30.8877 29.0822 29.8341 29.3586 21.6292C29.3331 21.7087 29.3035 21.7869 29.2697 21.8634V21.8634Z" fill="#844D9E"/>
<path style="mix-blend-mode:multiply" d="M29.2697 21.8634C29.0009 22.8047 28.4283 23.6334 27.6391 24.2234C26.85 24.8134 25.8874 25.1323 24.898 25.1317C24.5322 25.1345 24.1675 25.0919 23.8125 25.0048C23.2195 24.882 22.6647 24.6211 22.1941 24.2438C21.7656 23.9272 21.398 23.5374 21.1086 23.0926L20.8717 22.7512L18.4046 18.8975C17.9432 18.0292 17.3068 17.2635 16.5345 16.6477C15.7623 16.0318 14.8706 15.579 13.9145 15.317C12.2949 15.8561 10.5641 15.9836 8.88159 15.6877L13.8158 24.0585C17.9605 30.8877 29.0822 29.8341 29.3586 21.6292C29.3331 21.7087 29.3035 21.7869 29.2697 21.8634V21.8634Z" fill="url(#paint0_linear_0_1)"/>
<path d="M0.996826 5.84386V17.4536C0.996826 21.7756 5.27972 23.4829 7.79617 23.4829V4.64386C7.03803 4.38262 6.24049 4.25066 5.43762 4.25362C3.81255 4.2412 2.23687 4.80544 0.996826 5.84386V5.84386Z" fill="#844D9E"/>
<path style="mix-blend-mode:multiply" d="M0.996826 5.84386V17.4536C0.996826 21.7756 5.27972 23.4829 7.79617 23.4829V4.64386C7.03803 4.38262 6.24049 4.25066 5.43762 4.25362C3.81255 4.2412 2.23687 4.80544 0.996826 5.84386V5.84386Z" fill="url(#paint1_linear_0_1)"/>
<path d="M13.8947 15.317C15.1164 14.9049 16.1877 14.1452 16.9743 13.1333C17.7608 12.1214 18.2275 10.9024 18.3158 9.62923C18.454 4.17557 14.3684 0.975574 9.43422 0.975574C7.71676 0.970143 6.0292 1.41975 4.54707 2.27763C3.06494 3.13551 1.84239 4.37032 1.00659 5.85362V5.85362C2.24102 4.80111 3.81728 4.2228 5.44738 4.22435C6.25025 4.22139 7.04779 4.35335 7.80593 4.6146C9.0224 5.03356 10.0695 5.82965 10.7914 6.88437C11.5133 7.9391 11.8715 9.19609 11.8125 10.4683C11.7736 11.5041 11.4846 12.5157 10.9695 13.4187C10.4545 14.3216 9.72845 15.0896 8.85199 15.6585C10.5352 15.9654 12.2696 15.848 13.8947 15.317V15.317Z" fill="#844D9E"/>
<path d="M24.8982 23.5317C26.506 23.5317 27.8094 22.2431 27.8094 20.6536C27.8094 19.0641 26.506 17.7756 24.8982 17.7756C23.2904 17.7756 21.9871 19.0641 21.9871 20.6536C21.9871 22.2431 23.2904 23.5317 24.8982 23.5317Z" fill="#5759A7"/>
<defs>
<linearGradient id="paint0_linear_0_1" x1="20.4671" y1="20.956" x2="14.3849" y2="10.3784" gradientUnits="userSpaceOnUse">
<stop offset="0.28" stop-color="white"/>
<stop offset="0.34" stop-color="#F6F6F6"/>
<stop offset="0.44" stop-color="#DEDDDD"/>
<stop offset="0.56" stop-color="#B6B5B5"/>
<stop offset="0.7" stop-color="#7F7D7E"/>
<stop offset="0.85" stop-color="#3A3738"/>
<stop offset="0.9" stop-color="#231F20"/>
</linearGradient>
<linearGradient id="paint1_linear_0_1" x1="4.53959" y1="19.1512" x2="4.16343" y2="-3.24897" gradientUnits="userSpaceOnUse">
<stop offset="0.34" stop-color="white"/>
<stop offset="0.4" stop-color="#ECECEC"/>
<stop offset="0.53" stop-color="#BAB9B9"/>
<stop offset="0.71" stop-color="#6C696A"/>
<stop offset="0.87" stop-color="#231F20"/>
</linearGradient>
</defs>
</svg>
