<?xml version="1.0" ?><svg viewBox="0 0 32 32" xmlns="http://www.w3.org/2000/svg"><title/><g data-name="Layer 2" id="Layer_2"><path d="M9,9.41V14a6,6,0,0,0,9.47,4.89l1.43,1.43A8,8,0,0,1,7,14a1,1,0,0,0-2,0,10,10,0,0,0,9,9.95V28H10a1,1,0,0,0,0,2H20a1,1,0,0,0,0-2H16V23.95a10,10,0,0,0,5.32-2.21l6,6a1,1,0,0,0,1.41-1.41l-6-6A10,10,0,0,0,25,14a1,1,0,0,0-2,0,8,8,0,0,1-1.69,4.9l-1.43-1.43A6,6,0,0,0,21,14V8A6,6,0,0,0,9.14,6.73L4.71,2.29A1,1,0,0,0,3.29,3.71ZM15,18a4,4,0,0,1-4-4V11.41l6,6A4,4,0,0,1,15,18ZM11,8a4,4,0,0,1,8,0v6a4,4,0,0,1-.57,2L11,8.59Z"/></g></svg>