<svg width="436" height="49" viewBox="0 0 436 49" fill="none" xmlns="http://www.w3.org/2000/svg">
<g clip-path="url(#clip0_3364_469)">
<path d="M49.6547 37.0202C49.1803 38.6863 48.1748 40.1528 46.7903 41.1975C45.4059 42.2422 43.7179 42.8083 41.9822 42.81C41.3396 42.8084 40.6996 42.7271 40.0771 42.568C39.0373 42.3575 38.0632 41.9011 37.2367 41.2372C36.4747 40.67 35.8182 39.9739 35.2969 39.1806C35.1583 38.9732 35.0198 38.7831 34.8812 38.5584L30.4994 31.7662C29.6863 30.2253 28.5664 28.8664 27.2083 27.7728C25.8503 26.6791 24.2827 25.8737 22.6017 25.406C19.7687 26.3765 16.7342 26.6085 13.7861 26.08L22.4459 40.9261C29.72 53.0243 49.2391 51.1404 49.7413 36.6054C49.7191 36.745 49.6902 36.8834 49.6547 37.0202Z" fill="url(#paint0_linear_3364_469)"/>
<path d="M0.0166016 8.64155V29.2083C0.0166016 36.882 7.53326 39.8892 11.9497 39.8892V6.51573C10.6248 6.05421 9.231 5.82045 7.82769 5.82441C4.96968 5.79826 2.19746 6.79808 0.0166016 8.64155Z" fill="url(#paint1_linear_3364_469)"/>
<path d="M22.654 25.4061C24.8129 24.6931 26.7111 23.3565 28.1078 21.5658C29.5046 19.775 30.3371 17.6108 30.4998 15.3473C30.7422 5.68612 23.572 7.88265e-06 14.9122 7.88265e-06C11.9017 -0.00289601 8.94495 0.796575 6.34771 2.31579C3.75046 3.835 1.60693 6.01882 0.138672 8.64152C2.27802 6.80015 5.00341 5.77722 7.82853 5.75525C9.23184 5.75129 10.6257 5.98505 11.9506 6.44658C14.0982 7.17114 15.9495 8.57667 17.2222 10.4489C18.4948 12.3211 19.119 14.5572 18.9996 16.8164C18.9313 18.6514 18.424 20.4435 17.5201 22.0431C16.6163 23.6426 15.342 25.0031 13.8038 26.011C16.7572 26.5676 19.8043 26.3594 22.654 25.4061Z" fill="white"/>
<path d="M41.982 39.9929C43.0168 40.01 44.0332 39.7183 44.9008 39.1552C45.7684 38.5921 46.4477 37.7833 46.8516 36.8324C47.2556 35.8815 47.3658 34.8319 47.1681 33.8182C46.9703 32.8044 46.4737 31.8727 45.7419 31.1424C45.0101 30.4121 44.0764 29.9166 43.0605 29.7193C42.0446 29.522 40.9928 29.6319 40.0399 30.035C39.0871 30.4381 38.2765 31.116 37.7123 31.9818C37.148 32.8475 36.8557 33.8618 36.8728 34.8944C36.8728 36.2466 37.4111 37.5434 38.3692 38.4996C39.3274 39.4557 40.627 39.9929 41.982 39.9929Z" fill="white"/>
<path d="M256.467 9.54034H257.852V9.97242H257.385V11.839H256.934V9.97242H256.467V9.54034ZM259.082 11.1477L259.376 9.54034H260V11.8217H259.567V10.2144L259.29 11.8217H258.857L258.528 10.2144V11.8217H258.129V9.54034H258.753L259.082 11.1477Z" fill="white"/>
<path d="M73.7988 36.9509V9.54004H85.4895C87.0107 9.5318 88.5061 9.93174 89.8193 10.698C91.1218 11.4592 92.2117 12.5349 92.9888 13.8262C93.7698 15.1754 94.1707 16.7101 94.1492 18.268C94.1581 19.9306 93.6365 21.5529 92.6597 22.8998C91.7144 24.2686 90.3991 25.3414 88.8667 25.9935L95.2576 36.9855H90.0618L84.2598 26.6157H78.0767V36.9855L73.7988 36.9509ZM78.0421 22.5714H85.9224C86.4584 22.5846 86.9906 22.48 87.4815 22.2649C87.9724 22.0499 88.4098 21.7297 88.7628 21.3271C89.5119 20.4733 89.9081 19.3676 89.8713 18.2334C89.8929 17.6102 89.7769 16.9899 89.5314 16.4164C89.286 15.843 88.9172 15.3304 88.4511 14.9151C87.4506 14.0327 86.1482 13.5685 84.814 13.6188H78.0767L78.0421 22.5714Z" fill="white"/>
<path d="M117.287 37.3313C115.493 37.3584 113.711 37.0163 112.055 36.3265C110.398 35.6366 108.901 34.6138 107.658 33.3216C106.433 32.0347 105.473 30.5195 104.835 28.8626C104.162 27.067 103.827 25.1627 103.848 23.2456C103.827 21.3286 104.162 19.4243 104.835 17.6287C105.473 15.9717 106.433 14.4565 107.658 13.1696C109.58 11.2508 112.031 9.94534 114.698 9.41912C117.366 8.89291 120.13 9.16967 122.639 10.2142C124.255 10.9014 125.711 11.9133 126.917 13.1869C128.151 14.474 129.111 15.9966 129.74 17.6632C130.425 19.4442 130.766 21.3383 130.745 23.2456C130.766 25.153 130.425 27.0471 129.74 28.8281C129.111 30.4947 128.151 32.0172 126.917 33.3044C125.711 34.578 124.255 35.5899 122.639 36.277C120.948 36.9956 119.125 37.3546 117.287 37.3313ZM117.287 33.2352C118.95 33.2634 120.585 32.8134 121.998 31.939C123.388 31.0702 124.514 29.8392 125.254 28.3787C126.062 26.7709 126.466 24.9917 126.432 23.1938C126.466 21.3959 126.062 19.6166 125.254 18.0089C124.514 16.5484 123.388 15.3173 121.998 14.4486C120.571 13.601 118.94 13.1536 117.279 13.1536C115.618 13.1536 113.987 13.601 112.559 14.4486C111.196 15.2938 110.084 16.4871 109.338 17.9052C108.52 19.5091 108.115 21.291 108.16 23.0901C108.115 24.8892 108.52 26.6711 109.338 28.275C110.071 29.7248 111.184 30.9491 112.559 31.818C113.964 32.7382 115.607 33.2306 117.287 33.2352Z" fill="white"/>
<path d="M139.716 36.9512V33.8575L154.853 13.6191H140.738V9.54034H160.62V12.5994L145.552 32.8724H161.053V36.9512H139.716Z" fill="white"/>
<path d="M172.986 36.9512V33.028H177.403V13.429H172.986V9.54034H186.08V13.429H181.646V33.028H186.08V36.9512H172.986Z" fill="white"/>
<path d="M198.967 36.9512V9.54034H216.286V13.6191H203.227V20.8607H214.087V24.9222H203.193V32.8724H216.252V36.9512H198.967Z" fill="white"/>
<path d="M228.323 23.9198L233.952 9.54034H236.429L242.006 23.9198H239.252L238.022 20.6015H232.237L230.99 23.9198H228.323ZM234.073 15.7795L233.138 18.3028H237.173L236.186 15.7104C236.086 15.4619 235.999 15.208 235.926 14.9499L235.545 13.792L235.164 12.6167C235.009 13.1525 234.818 13.7055 234.628 14.345L234.073 15.7795Z" fill="white"/>
<path d="M245.47 23.9198V21.552H247.825V11.9081H245.47V9.54034H252.831V11.9081H250.458V21.552H252.813V23.9198H245.47Z" fill="white"/>
</g>
<rect x="306" width="3" height="48.9109" rx="1.5" fill="#D9D9D9"/>
<path d="M377.828 17.8359C377.828 18.8317 377.936 19.639 378.124 20.2311C378.34 20.8231 378.609 21.469 378.986 22.1687C379.121 22.384 379.175 22.5993 379.175 22.7877C379.175 23.0568 379.013 23.3259 378.663 23.595L376.966 24.7253C376.724 24.8868 376.481 24.9675 376.266 24.9675C375.996 24.9675 375.727 24.8329 375.457 24.5907C375.08 24.1871 374.757 23.7565 374.488 23.3259C374.218 22.8684 373.949 22.3571 373.653 21.7381C371.551 24.214 368.911 25.4519 365.733 25.4519C363.47 25.4519 361.665 24.806 360.345 23.5143C359.025 22.2225 358.352 20.5002 358.352 18.3473C358.352 16.0598 359.16 14.2029 360.803 12.8035C362.446 11.4041 364.628 10.7044 367.403 10.7044C368.319 10.7044 369.262 10.7851 370.258 10.9197C371.255 11.0543 372.279 11.2695 373.356 11.5118V9.54721C373.356 7.50194 372.925 6.07563 372.09 5.24138C371.228 4.40712 369.773 4.00345 367.699 4.00345C366.756 4.00345 365.787 4.1111 364.79 4.3533C363.793 4.5955 362.823 4.89153 361.88 5.26829C361.449 5.45667 361.126 5.56432 360.938 5.61814C360.749 5.67196 360.614 5.69887 360.507 5.69887C360.129 5.69887 359.941 5.42976 359.941 4.86462V3.54596C359.941 3.11537 359.995 2.79243 360.129 2.60405C360.264 2.41567 360.507 2.22729 360.884 2.03891C361.827 1.55451 362.958 1.15083 364.278 0.827897C365.598 0.478048 366.999 0.316579 368.48 0.316579C371.686 0.316579 374.03 1.04319 375.538 2.49641C377.02 3.94963 377.774 6.15637 377.774 9.11663V17.8359H377.828ZM366.891 21.9265C367.78 21.9265 368.696 21.765 369.666 21.4421C370.635 21.1191 371.497 20.5271 372.225 19.7197C372.656 19.2084 372.979 18.6433 373.141 17.9974C373.302 17.3515 373.41 16.5711 373.41 15.6561V14.5258C372.629 14.3375 371.794 14.176 370.932 14.0683C370.07 13.9607 369.235 13.9069 368.4 13.9069C366.595 13.9069 365.275 14.2567 364.386 14.9833C363.497 15.7099 363.066 16.7326 363.066 18.0781C363.066 19.343 363.389 20.2849 364.062 20.9308C364.709 21.6036 365.652 21.9265 366.891 21.9265ZM388.523 24.8329C388.038 24.8329 387.714 24.7522 387.499 24.5638C387.283 24.4023 387.095 24.0256 386.933 23.5143L380.603 2.7117C380.441 2.17347 380.36 1.82362 380.36 1.63524C380.36 1.20466 380.576 0.962455 381.007 0.962455H383.647C384.159 0.962455 384.509 1.04319 384.697 1.23157C384.913 1.39304 385.074 1.7698 385.236 2.28112L389.762 20.0965L393.964 2.28112C394.099 1.74289 394.26 1.39304 394.476 1.23157C394.691 1.0701 395.069 0.962455 395.553 0.962455H397.709C398.22 0.962455 398.571 1.04319 398.786 1.23157C399.002 1.39304 399.19 1.7698 399.298 2.28112L403.554 20.3118L408.215 2.28112C408.376 1.74289 408.565 1.39304 408.753 1.23157C408.969 1.0701 409.319 0.962455 409.804 0.962455H412.309C412.74 0.962455 412.983 1.17775 412.983 1.63524C412.983 1.7698 412.956 1.90436 412.929 2.06582C412.902 2.22729 412.848 2.44259 412.74 2.73861L406.248 23.5412C406.086 24.0794 405.898 24.4293 405.682 24.5907C405.467 24.7522 405.117 24.8598 404.659 24.8598H402.342C401.83 24.8598 401.48 24.7791 401.264 24.5907C401.049 24.4023 400.86 24.0525 400.753 23.5143L396.577 6.15637L392.429 23.4874C392.294 24.0256 392.132 24.3754 391.917 24.5638C391.701 24.7522 391.324 24.8329 390.839 24.8329H388.523ZM423.138 25.5595C421.738 25.5595 420.337 25.3981 418.99 25.0751C417.643 24.7522 416.592 24.4023 415.892 23.9987C415.461 23.7565 415.165 23.4874 415.057 23.2452C414.949 23.0029 414.895 22.7338 414.895 22.4916V21.1191C414.895 20.554 415.111 20.2849 415.515 20.2849C415.676 20.2849 415.838 20.3118 416 20.3656C416.161 20.4194 416.404 20.5271 416.673 20.6347C417.589 21.0384 418.586 21.3613 419.636 21.5766C420.714 21.7919 421.765 21.8996 422.842 21.8996C424.539 21.8996 425.859 21.6036 426.775 21.0115C427.691 20.4194 428.176 19.5583 428.176 18.4549C428.176 17.7014 427.933 17.0824 427.449 16.5711C426.964 16.0598 426.048 15.6023 424.728 15.1717L420.822 13.9607C418.855 13.3417 417.4 12.4267 416.512 11.2157C415.623 10.0316 415.165 8.71296 415.165 7.31356C415.165 6.18328 415.407 5.18756 415.892 4.32639C416.377 3.46522 417.023 2.7117 417.832 2.11965C418.64 1.50068 419.556 1.04319 420.633 0.720251C421.711 0.397314 422.842 0.262756 424.027 0.262756C424.62 0.262756 425.24 0.289668 425.832 0.370402C426.452 0.451137 427.017 0.558783 427.583 0.666428C428.122 0.800986 428.634 0.935543 429.119 1.09701C429.604 1.25848 429.981 1.41995 430.25 1.58142C430.627 1.79671 430.897 2.012 431.058 2.25421C431.22 2.4695 431.301 2.76552 431.301 3.14228V4.40712C431.301 4.97226 431.085 5.26829 430.681 5.26829C430.466 5.26829 430.115 5.16064 429.657 4.94535C428.122 4.24565 426.398 3.8958 424.485 3.8958C422.95 3.8958 421.738 4.13801 420.902 4.64933C420.067 5.16064 419.636 5.94108 419.636 7.04445C419.636 7.79797 419.906 8.44384 420.445 8.95516C420.983 9.46648 421.98 9.9778 423.408 10.4353L427.233 11.6463C429.173 12.2653 430.573 13.1264 431.408 14.2298C432.244 15.3332 432.648 16.598 432.648 17.9974C432.648 19.1546 432.405 20.2042 431.947 21.1191C431.462 22.0341 430.816 22.8415 429.981 23.4874C429.146 24.1601 428.149 24.6445 426.991 24.9944C425.778 25.3712 424.512 25.5595 423.138 25.5595Z" fill="white"/>
<path d="M428.227 38.6367C419.364 45.1762 406.488 48.6478 395.416 48.6478C379.9 48.6478 365.919 42.9157 355.359 33.389C354.524 32.6355 355.278 31.6128 356.275 32.2049C367.697 38.8251 381.785 42.8349 396.359 42.8349C406.192 42.8349 416.994 40.7897 426.934 36.5915C428.416 35.9187 429.682 37.5603 428.227 38.6367Z" fill="white"/>
<path d="M431.923 34.4376C430.791 32.9843 424.434 33.7379 421.551 34.0877C420.689 34.1954 420.555 33.4418 421.336 32.8767C426.4 29.3244 434.724 30.347 435.694 31.5311C436.664 32.7421 435.425 41.0578 430.683 45.0407C429.956 45.6596 429.256 45.3367 429.579 44.5294C430.656 41.8651 433.054 35.8639 431.923 34.4376Z" fill="white"/>
<defs>
<linearGradient id="paint0_linear_3364_469" x1="29.3044" y1="43.1384" x2="34.0482" y2="22.1007" gradientUnits="userSpaceOnUse">
<stop offset="0.34" stop-color="white"/>
<stop offset="0.4" stop-color="#F6F6F6"/>
<stop offset="0.48" stop-color="#DEDDDD"/>
<stop offset="0.59" stop-color="#B6B5B5"/>
<stop offset="0.72" stop-color="#7F7D7E"/>
<stop offset="0.86" stop-color="#3A3738"/>
<stop offset="0.9" stop-color="#231F20"/>
</linearGradient>
<linearGradient id="paint1_linear_3364_469" x1="9.10933" y1="32.2156" x2="0.380756" y2="-6.54084" gradientUnits="userSpaceOnUse">
<stop offset="0.25" stop-color="white"/>
<stop offset="0.31" stop-color="#F6F6F6"/>
<stop offset="0.41" stop-color="#DEDEDE"/>
<stop offset="0.53" stop-color="#B7B6B6"/>
<stop offset="0.66" stop-color="#817F7F"/>
<stop offset="0.82" stop-color="#3C393A"/>
<stop offset="0.87" stop-color="#231F20"/>
</linearGradient>
<clipPath id="clip0_3364_469">
<rect width="260" height="48.9109" fill="white"/>
</clipPath>
</defs>
</svg>
