<svg width="228" height="42" viewBox="0 0 228 42" fill="none" xmlns="http://www.w3.org/2000/svg">
<g id="Rozie-White-Logo">
<path id="Vector" d="M43.8951 31.8827C43.4806 33.2966 42.6021 34.5411 41.3925 35.4277C40.183 36.3143 38.7083 36.7946 37.1918 36.7961C36.6304 36.7947 36.0713 36.7257 35.5274 36.5907C34.6189 36.4121 33.7679 36.0248 33.0458 35.4614C32.38 34.98 31.8065 34.3893 31.351 33.7161C31.23 33.5401 31.1089 33.3787 30.9879 33.1881L27.1596 27.4241C26.4492 26.1165 25.4707 24.9633 24.2842 24.0352C23.0978 23.1071 21.7282 22.4237 20.2596 22.0267C17.7845 22.8503 15.1333 23.0472 12.5576 22.5987L20.1234 35.1974C26.4787 45.4641 43.532 43.8654 43.9708 31.5307C43.9514 31.6492 43.9261 31.7666 43.8951 31.8827Z" fill="url(#paint0_linear_3140_102)"/>
<path id="Vector_2" d="M0.52832 7.80003V25.2534C0.52832 31.7654 7.09543 34.3174 10.954 34.3174V5.99603C9.79643 5.60437 8.5787 5.406 7.35266 5.40936C4.8557 5.38716 2.43368 6.23563 0.52832 7.80003Z" fill="url(#paint1_linear_3140_102)"/>
<path id="Vector_3" d="M20.3048 22.0267C22.191 21.4217 23.8494 20.2874 25.0697 18.7678C26.29 17.2481 27.0173 15.4115 27.1594 13.4907C27.3713 5.29201 21.1068 0.466681 13.541 0.466681C10.9108 0.464217 8.3276 1.14266 6.05846 2.43189C3.78931 3.72112 1.91657 5.57434 0.633789 7.80001C2.50288 6.2374 4.88398 5.36932 7.35221 5.35068C8.57825 5.34732 9.79598 5.54569 10.9535 5.93735C12.8299 6.55223 14.4473 7.74499 15.5592 9.33377C16.6711 10.9226 17.2164 12.8202 17.1121 14.7373C17.0524 16.2946 16.6092 17.8154 15.8195 19.1728C15.0298 20.5302 13.9165 21.6847 12.5726 22.54C15.1529 23.0124 17.8151 22.8357 20.3048 22.0267Z" fill="white"/>
<path id="Vector_4" d="M37.192 34.4054C38.0961 34.4198 38.984 34.1723 39.742 33.6945C40.5 33.2166 41.0935 32.5302 41.4464 31.7233C41.7994 30.9164 41.8956 30.0257 41.7229 29.1654C41.5501 28.3051 41.1163 27.5144 40.4769 26.8947C39.8375 26.275 39.0218 25.8544 38.1342 25.687C37.2467 25.5196 36.3277 25.6129 35.4952 25.9549C34.6627 26.297 33.9546 26.8723 33.4616 27.607C32.9686 28.3417 32.7132 29.2024 32.7282 30.0787C32.7282 31.2262 33.1985 32.3267 34.0356 33.1381C34.8727 33.9495 36.0081 34.4054 37.192 34.4054Z" fill="white"/>
<path id="Vector_5" d="M224.582 8.56274H225.793V8.92941H225.384V10.5134H224.991V8.92941H224.582V8.56274ZM226.867 9.92675L227.124 8.56274H227.669V10.4987H227.291V9.13474L227.048 10.4987H226.67L226.383 9.13474V10.4987H226.035V8.56274H226.579L226.867 9.92675Z" fill="white"/>
<path id="Vector_6" d="M64.9893 31.8239V8.56261H75.2031C76.5321 8.55561 77.8387 8.89501 78.986 9.54527C80.1239 10.1913 81.0761 11.1041 81.755 12.1999C82.4374 13.3448 82.7877 14.6472 82.7689 15.9693C82.7767 17.3802 82.3209 18.7569 81.4675 19.8999C80.6416 21.0615 79.4925 21.9719 78.1537 22.5253L83.7373 31.8533H79.1978L74.1287 23.0533H68.7268V31.8533L64.9893 31.8239ZM68.6965 19.6213H75.5814C76.0496 19.6325 76.5146 19.5437 76.9435 19.3612C77.3724 19.1787 77.7545 18.9069 78.0629 18.5653C78.7174 17.8408 79.0635 16.9024 79.0314 15.9399C79.0502 15.4111 78.9489 14.8847 78.7345 14.398C78.52 13.9114 78.1978 13.4764 77.7906 13.1239C76.9165 12.3752 75.7786 11.9813 74.6129 12.0239H68.7268L68.6965 19.6213Z" fill="white"/>
<path id="Vector_7" d="M102.984 32.1467C101.416 32.1696 99.8596 31.8794 98.4122 31.294C96.9648 30.7086 95.6572 29.8405 94.5709 28.744C93.5004 27.6519 92.6623 26.3661 92.1045 24.96C91.5164 23.4362 91.224 21.8202 91.242 20.1933C91.224 18.5665 91.5164 16.9505 92.1045 15.4267C92.6623 14.0206 93.5004 12.7348 94.5709 11.6427C96.2505 10.0143 98.3915 8.90647 100.722 8.45992C103.052 8.01337 105.467 8.24823 107.66 9.13467C109.071 9.71777 110.343 10.5765 111.397 11.6573C112.475 12.7496 113.314 14.0417 113.864 15.456C114.462 16.9673 114.76 18.5747 114.741 20.1933C114.76 21.812 114.462 23.4193 113.864 24.9307C113.314 26.345 112.475 27.6371 111.397 28.7293C110.343 29.8102 109.071 30.6689 107.66 31.252C106.182 31.8618 104.59 32.1665 102.984 32.1467ZM102.984 28.6707C104.437 28.6946 105.865 28.3127 107.1 27.5707C108.314 26.8334 109.298 25.7887 109.945 24.5493C110.65 23.185 111.003 21.6751 110.974 20.1493C111.003 18.6236 110.65 17.1137 109.945 15.7493C109.298 14.5099 108.314 13.4653 107.1 12.728C105.852 12.0087 104.428 11.6291 102.977 11.6291C101.525 11.6291 100.101 12.0087 98.8532 12.728C97.6621 13.4452 96.6904 14.458 96.0387 15.6613C95.3241 17.0224 94.9705 18.5346 95.0098 20.0613C94.9705 21.5881 95.3241 23.1002 96.0387 24.4613C96.6794 25.6916 97.652 26.7307 98.8532 27.468C100.081 28.2489 101.516 28.6668 102.984 28.6707Z" fill="white"/>
<path id="Vector_8" d="M122.58 31.8241V29.1987L135.805 12.0241H123.473V8.56274H140.844V11.1587L127.679 28.3627H141.222V31.8241H122.58Z" fill="white"/>
<path id="Vector_9" d="M151.647 31.8241V28.4947H155.506V11.8627H151.647V8.56274H163.087V11.8627H159.213V28.4947H163.087V31.8241H151.647Z" fill="white"/>
<path id="Vector_10" d="M174.345 31.8241V8.56274H189.476V12.0241H178.067V18.1694H187.555V21.6161H178.037V28.3627H189.446V31.8241H174.345Z" fill="white"/>
<path id="Vector_11" d="M199.993 20.7654L204.911 8.56274H207.075L211.947 20.7654H209.541L208.467 17.9494H203.413L202.323 20.7654H199.993ZM205.017 13.8574L204.2 15.9987H207.725L206.863 13.7987C206.775 13.5878 206.699 13.3724 206.636 13.1534L206.303 12.1707L205.97 11.1734C205.834 11.6281 205.668 12.0974 205.501 12.6401L205.017 13.8574Z" fill="white"/>
<path id="Vector_12" d="M214.973 20.7654V18.7561H217.031V10.5721H214.973V8.56274H221.404V10.5721H219.331V18.7561H221.388V20.7654H214.973Z" fill="white"/>
</g>
<defs>
<linearGradient id="paint0_linear_3140_102" x1="26.0428" y1="37.051" x2="29.9554" y2="19.1744" gradientUnits="userSpaceOnUse">
<stop offset="0.34" stop-color="white"/>
<stop offset="0.4" stop-color="#F6F6F6"/>
<stop offset="0.48" stop-color="#DEDDDD"/>
<stop offset="0.59" stop-color="#B6B5B5"/>
<stop offset="0.72" stop-color="#7F7D7E"/>
<stop offset="0.86" stop-color="#3A3738"/>
<stop offset="0.9" stop-color="#231F20"/>
</linearGradient>
<linearGradient id="paint1_linear_3140_102" x1="8.472" y1="27.8258" x2="1.26899" y2="-5.08388" gradientUnits="userSpaceOnUse">
<stop offset="0.25" stop-color="white"/>
<stop offset="0.31" stop-color="#F6F6F6"/>
<stop offset="0.41" stop-color="#DEDEDE"/>
<stop offset="0.53" stop-color="#B7B6B6"/>
<stop offset="0.66" stop-color="#817F7F"/>
<stop offset="0.82" stop-color="#3C393A"/>
<stop offset="0.87" stop-color="#231F20"/>
</linearGradient>
</defs>
</svg>
