<svg width="38" height="38" viewBox="0 0 38 38" fill="none" xmlns="http://www.w3.org/2000/svg">
<g id="Rozie_Icon_White 1" filter="url(#filter0_ddd_4347_2417)">
<path id="Vector" d="M34.8897 25.8242C34.2882 27.9796 32.3083 29.5636 29.9624 29.5636C29.5414 29.5636 29.1303 29.5135 28.7393 29.4132C28.1228 29.2879 27.5063 29.0172 26.9098 28.5511C26.4236 28.1851 26.0025 27.739 25.6717 27.2277C25.5814 27.1024 25.4912 26.9721 25.401 26.8318L22.619 22.4358C21.0702 19.9295 19.3258 18.7716 17.5463 18.3505C16.0426 18.9019 14.1729 19.1225 11.8771 18.7816L17.4762 28.3305C22.1478 36.1551 34.6842 34.912 35 25.5536C34.9699 25.6438 34.9298 25.734 34.8897 25.8242Z" fill="url(#paint0_linear_4347_2417)"/>
<path id="Vector_2" d="M3.0141 7.55375V20.7869C3.0141 25.7242 7.83617 27.6641 10.6733 27.6641V6.14021C9.85121 5.84948 8.95898 5.69409 8.02163 5.69409C6.172 5.69409 4.28729 6.40086 3.0141 7.55375Z" fill="url(#paint1_linear_4347_2417)"/>
<path id="Vector_3" d="M17.5514 18.3509C20.99 17.0928 22.4838 14.0702 22.5389 11.8747C22.6993 5.65415 18.0828 2 12.5088 2C8.57395 2 4.68422 4.25063 3.02005 7.53887L3.01504 7.54388C3.01003 7.54889 3.00501 7.55892 3 7.56393C3.00501 7.55892 3.01003 7.55892 3.01504 7.5539C4.28823 6.40102 6.17294 5.69425 8.02759 5.69425C8.96493 5.69425 9.85717 5.84964 10.6792 6.14037C13.3359 7.07771 15.2256 9.45366 15.1955 12.8672C15.1755 15.3234 13.767 17.4888 11.8822 18.782C14.178 19.1229 16.0477 18.9023 17.5514 18.3509Z" fill="white"/>
<path id="Vector_4" d="M29.963 27.731C31.7775 27.731 33.2462 26.2623 33.2462 24.4478C33.2462 22.6332 31.7775 21.1646 29.963 21.1646C28.1484 21.1646 26.6797 22.6332 26.6797 24.4478C26.6797 26.2623 28.1484 27.731 29.963 27.731Z" fill="white"/>
</g>
<defs>
<filter id="filter0_ddd_4347_2417" x="0" y="0" width="38" height="37.4736" filterUnits="userSpaceOnUse" color-interpolation-filters="sRGB">
<feFlood flood-opacity="0" result="BackgroundImageFix"/>
<feColorMatrix in="SourceAlpha" type="matrix" values="0 0 0 0 0 0 0 0 0 0 0 0 0 0 0 0 0 0 127 0" result="hardAlpha"/>
<feOffset dy="1"/>
<feGaussianBlur stdDeviation="0.5"/>
<feComposite in2="hardAlpha" operator="out"/>
<feColorMatrix type="matrix" values="0 0 0 0 0 0 0 0 0 0 0 0 0 0 0 0 0 0 0.14 0"/>
<feBlend mode="normal" in2="BackgroundImageFix" result="effect1_dropShadow_4347_2417"/>
<feColorMatrix in="SourceAlpha" type="matrix" values="0 0 0 0 0 0 0 0 0 0 0 0 0 0 0 0 0 0 127 0" result="hardAlpha"/>
<feOffset dy="2"/>
<feGaussianBlur stdDeviation="0.5"/>
<feComposite in2="hardAlpha" operator="out"/>
<feColorMatrix type="matrix" values="0 0 0 0 0 0 0 0 0 0 0 0 0 0 0 0 0 0 0.12 0"/>
<feBlend mode="normal" in2="effect1_dropShadow_4347_2417" result="effect2_dropShadow_4347_2417"/>
<feColorMatrix in="SourceAlpha" type="matrix" values="0 0 0 0 0 0 0 0 0 0 0 0 0 0 0 0 0 0 127 0" result="hardAlpha"/>
<feOffset dy="1"/>
<feGaussianBlur stdDeviation="1.5"/>
<feComposite in2="hardAlpha" operator="out"/>
<feColorMatrix type="matrix" values="0 0 0 0 0 0 0 0 0 0 0 0 0 0 0 0 0 0 0.2 0"/>
<feBlend mode="normal" in2="effect2_dropShadow_4347_2417" result="effect3_dropShadow_4347_2417"/>
<feBlend mode="normal" in="SourceGraphic" in2="effect3_dropShadow_4347_2417" result="shape"/>
</filter>
<linearGradient id="paint0_linear_4347_2417" x1="21.8034" y1="29.7525" x2="24.8559" y2="16.2248" gradientUnits="userSpaceOnUse">
<stop offset="0.34" stop-color="white"/>
<stop offset="0.4" stop-color="#F6F6F6"/>
<stop offset="0.48" stop-color="#DEDDDD"/>
<stop offset="0.59" stop-color="#B6B5B5"/>
<stop offset="0.72" stop-color="#7F7D7E"/>
<stop offset="0.86" stop-color="#3A3738"/>
<stop offset="0.9" stop-color="#231F20"/>
</linearGradient>
<linearGradient id="paint1_linear_4347_2417" x1="8.8499" y1="22.7306" x2="3.205" y2="-2.20032" gradientUnits="userSpaceOnUse">
<stop offset="0.25" stop-color="white"/>
<stop offset="0.31" stop-color="#F6F6F6"/>
<stop offset="0.41" stop-color="#DEDEDE"/>
<stop offset="0.53" stop-color="#B7B6B6"/>
<stop offset="0.66" stop-color="#817F7F"/>
<stop offset="0.82" stop-color="#3C393A"/>
<stop offset="0.87" stop-color="#231F20"/>
</linearGradient>
</defs>
</svg>
