<svg width="1022" height="265" viewBox="0 0 1022 265" fill="none" xmlns="http://www.w3.org/2000/svg">
<path d="M911.991 101C902.224 101 903.971 132 875 132H949C920.029 132 921.776 101 912.009 101H911.991Z" fill="url(#paint0_linear_3182_21707)"/>
<path d="M961.565 122C949.464 122 951.629 132 915.737 132H1007.42C971.523 132 973.688 122 961.587 122H961.565Z" fill="url(#paint1_linear_3182_21707)"/>
<path d="M860.508 107C845.107 107 847.862 132 802.182 132H918.863C873.182 132 875.937 107 860.536 107H860.508Z" fill="url(#paint2_linear_3182_21707)"/>
<path d="M709.983 85C685.069 85 689.54 133 615.7 133H804.265C730.461 133 734.896 85 709.983 85Z" fill="url(#paint3_linear_3182_21707)"/>
<path d="M642.787 104C622.87 104 631.49 132 590.697 132H694.877C654.084 132 662.704 104 642.787 104Z" fill="url(#paint4_linear_3182_21707)"/>
<path d="M510.97 103.513C445.202 103.513 473.634 132.5 338.952 132.5H683.048C548.366 132.5 576.798 103.513 511.03 103.513H510.97Z" fill="url(#paint5_linear_3182_21707)"/>
<path d="M374.525 96C397.43 96 387.517 133 434.428 133H314.622C361.534 133 351.62 96 374.525 96Z" fill="url(#paint6_linear_3182_21707)"/>
<path d="M125.536 105C158.684 105 152.754 133 251.072 133H0C98.3179 133 92.388 105 125.536 105Z" fill="url(#paint7_linear_3182_21707)"/>
<path d="M290.14 85C313.402 85 309.228 133 378.172 133H202.108C271.019 133 266.878 85 290.14 85Z" fill="url(#paint8_linear_3182_21707)"/>
<path d="M202.108 104C226.058 104 221.76 133 292.744 133H111.472C182.421 133 178.158 104 202.108 104Z" fill="url(#paint9_linear_3182_21707)"/>
<path d="M790.2 96C765.287 96 769.757 133 695.918 133H884.483C810.679 133 815.114 96 790.2 96Z" fill="url(#paint10_linear_3182_21707)"/>
<path d="M125.536 150C158.684 150 152.754 133 251.072 133H0C98.3179 133 92.388 150 125.536 150Z" fill="url(#paint11_linear_3182_21707)"/>
<path d="M288.056 169C306.914 169 303.53 133 359.419 133H216.693C272.556 133 269.199 169 288.056 169Z" fill="url(#paint12_linear_3182_21707)"/>
<path d="M216.693 159C198.249 159 201.558 133 146.893 133H286.493C231.854 133 235.137 159 216.693 159Z" fill="url(#paint13_linear_3182_21707)"/>
<path d="M375.046 160C395.361 160 386.569 133 428.177 133H321.914C363.522 133 354.73 160 375.046 160Z" fill="url(#paint14_linear_3182_21707)"/>
<path d="M511.03 160.199C576.798 160.199 548.366 133.5 683.048 133.5H338.952C473.634 133.5 445.202 160.199 510.97 160.199H511.03Z" fill="url(#paint15_linear_3182_21707)"/>
<path d="M641.745 154C624.218 154 631.804 132 595.906 132H687.584C651.687 132 659.272 154 641.745 154Z" fill="url(#paint16_linear_3182_21707)"/>
<path d="M956.872 149C939.683 149 942.758 132 891.775 132H1022C971.017 132 974.092 149 956.903 149H956.872Z" fill="url(#paint17_linear_3182_21707)"/>
<path d="M913.117 154C895.928 154 899.003 132 848.021 132H978.245C927.262 132 930.337 154 913.148 154H913.117Z" fill="url(#paint18_linear_3182_21707)"/>
<path d="M857.379 149C837.852 149 841.345 132 783.429 132H931.363C873.447 132 876.94 149 857.414 149H857.379Z" fill="url(#paint19_linear_3182_21707)"/>
<path d="M711.024 169C689.965 169 693.744 132 631.327 132H790.722C728.335 132 732.084 169 711.024 169Z" fill="url(#paint20_linear_3182_21707)"/>
<path d="M789.68 154C771.786 154 774.997 132 721.963 132H857.396C804.388 132 807.573 154 789.68 154Z" fill="url(#paint21_linear_3182_21707)"/>
<g opacity="0.5" filter="url(#filter0_f_3182_21707)">
<circle cx="512.5" cy="132.5" r="82.5" fill="url(#paint22_linear_3182_21707)"/>
</g>
<circle cx="512.5" cy="132.5" r="75.9603" fill="white"/>
<circle cx="512.5" cy="132.5" r="75.4603" fill="url(#paint23_linear_3182_21707)" stroke="url(#paint24_linear_3182_21707)"/>
<g filter="url(#filter1_f_3182_21707)">
<circle cx="512.5" cy="132.5" r="71.2616" stroke="url(#paint25_linear_3182_21707)"/>
</g>
<g filter="url(#filter2_f_3182_21707)">
<circle cx="512.501" cy="132.5" r="71.5116" stroke="url(#paint26_linear_3182_21707)" stroke-width="0.5"/>
</g>
<path d="M575.73 132.501C575.73 167.422 547.421 195.731 512.5 195.731C477.579 195.731 449.27 167.422 449.27 132.501C449.27 97.5794 472.821 147.44 507.742 147.44C542.663 147.44 575.73 97.5794 575.73 132.501Z" fill="url(#paint27_linear_3182_21707)"/>
<path d="M575.73 132.5C575.73 167.421 520.776 119.646 485.855 119.646C450.933 119.646 449.27 167.421 449.27 132.5C449.27 97.579 477.579 69.2697 512.5 69.2697C547.421 69.2697 575.73 97.579 575.73 132.5Z" fill="url(#paint28_linear_3182_21707)"/>
<path d="M575.73 132.501C575.73 148.084 550.153 177.668 515.232 177.668C480.311 177.668 449.27 153.719 449.27 132.501C449.27 97.5794 464.814 138.926 499.735 138.926C534.656 138.926 575.73 97.5794 575.73 132.501Z" fill="url(#paint29_linear_3182_21707)"/>
<g style="mix-blend-mode:screen">
<circle cx="512.5" cy="132.5" r="63.2305" fill="url(#paint30_linear_3182_21707)"/>
</g>
<defs>
<filter id="filter0_f_3182_21707" x="380" y="0" width="265" height="265" filterUnits="userSpaceOnUse" color-interpolation-filters="sRGB">
<feFlood flood-opacity="0" result="BackgroundImageFix"/>
<feBlend mode="normal" in="SourceGraphic" in2="BackgroundImageFix" result="shape"/>
<feGaussianBlur stdDeviation="25" result="effect1_foregroundBlur_3182_21707"/>
</filter>
<filter id="filter1_f_3182_21707" x="434.238" y="54.2385" width="156.523" height="156.523" filterUnits="userSpaceOnUse" color-interpolation-filters="sRGB">
<feFlood flood-opacity="0" result="BackgroundImageFix"/>
<feBlend mode="normal" in="SourceGraphic" in2="BackgroundImageFix" result="shape"/>
<feGaussianBlur stdDeviation="3.25" result="effect1_foregroundBlur_3182_21707"/>
</filter>
<filter id="filter2_f_3182_21707" x="437.439" y="57.4385" width="150.123" height="150.123" filterUnits="userSpaceOnUse" color-interpolation-filters="sRGB">
<feFlood flood-opacity="0" result="BackgroundImageFix"/>
<feBlend mode="normal" in="SourceGraphic" in2="BackgroundImageFix" result="shape"/>
<feGaussianBlur stdDeviation="1.65" result="effect1_foregroundBlur_3182_21707"/>
</filter>
<linearGradient id="paint0_linear_3182_21707" x1="856.88" y1="139.983" x2="885.019" y2="70.5152" gradientUnits="userSpaceOnUse">
<stop stop-color="#25253A"/>
<stop offset="1" stop-color="#6437B2"/>
</linearGradient>
<linearGradient id="paint1_linear_3182_21707" x1="893.047" y1="134.225" x2="895.845" y2="108.428" gradientUnits="userSpaceOnUse">
<stop stop-color="#534AD8"/>
<stop offset="1" stop-color="#834C9D"/>
</linearGradient>
<linearGradient id="paint2_linear_3182_21707" x1="773.303" y1="137.563" x2="786.6" y2="75.1442" gradientUnits="userSpaceOnUse">
<stop stop-color="#534AD8"/>
<stop offset="1" stop-color="#834C9D"/>
</linearGradient>
<linearGradient id="paint3_linear_3182_21707" x1="569.527" y1="145.36" x2="598.586" y2="27.3013" gradientUnits="userSpaceOnUse">
<stop stop-color="#25253A"/>
<stop offset="1" stop-color="#6437B2"/>
</linearGradient>
<linearGradient id="paint4_linear_3182_21707" x1="564.913" y1="138.23" x2="583.141" y2="70.0199" gradientUnits="userSpaceOnUse">
<stop stop-color="#534AD8"/>
<stop offset="1" stop-color="#834C9D"/>
</linearGradient>
<linearGradient id="paint5_linear_3182_21707" x1="253.788" y1="138.95" x2="260.081" y2="63.819" gradientUnits="userSpaceOnUse">
<stop stop-color="#534AD8"/>
<stop offset="1" stop-color="#834C9D"/>
</linearGradient>
<linearGradient id="paint6_linear_3182_21707" x1="284.97" y1="141.233" x2="312.069" y2="52.9821" gradientUnits="userSpaceOnUse">
<stop stop-color="#534AD8"/>
<stop offset="1" stop-color="#834C9D"/>
</linearGradient>
<linearGradient id="paint7_linear_3182_21707" x1="-61.4793" y1="140.21" x2="-53.6936" y2="68.0097" gradientUnits="userSpaceOnUse">
<stop stop-color="#25253A"/>
<stop offset="1" stop-color="#6437B2"/>
</linearGradient>
<linearGradient id="paint8_linear_3182_21707" x1="158.996" y1="145.36" x2="189.859" y2="28.2847" gradientUnits="userSpaceOnUse">
<stop stop-color="#25253A"/>
<stop offset="1" stop-color="#6437B2"/>
</linearGradient>
<linearGradient id="paint9_linear_3182_21707" x1="66.6068" y1="139.453" x2="78.3496" y2="65.6291" gradientUnits="userSpaceOnUse">
<stop stop-color="#534AD8"/>
<stop offset="1" stop-color="#834C9D"/>
</linearGradient>
<linearGradient id="paint10_linear_3182_21707" x1="649.248" y1="141.233" x2="667.398" y2="48.202" gradientUnits="userSpaceOnUse">
<stop stop-color="#534AD8"/>
<stop offset="1" stop-color="#834C9D"/>
</linearGradient>
<linearGradient id="paint11_linear_3182_21707" x1="-11.9259" y1="150.807" x2="-9.25027" y2="111.718" gradientUnits="userSpaceOnUse">
<stop stop-color="#01BC47"/>
<stop offset="0.630208" stop-color="#09C250"/>
<stop offset="1" stop-color="#00EB5F"/>
</linearGradient>
<linearGradient id="paint12_linear_3182_21707" x1="209.914" y1="170.71" x2="229.826" y2="92.6224" gradientUnits="userSpaceOnUse">
<stop stop-color="#01BC47"/>
<stop offset="0.630208" stop-color="#09C250"/>
<stop offset="1" stop-color="#00EB5F"/>
</linearGradient>
<linearGradient id="paint13_linear_3182_21707" x1="293.124" y1="160.235" x2="282.202" y2="102.228" gradientUnits="userSpaceOnUse">
<stop stop-color="#00762C"/>
<stop offset="0.630208" stop-color="#12A44A"/>
<stop offset="1" stop-color="#00EB5F"/>
</linearGradient>
<linearGradient id="paint14_linear_3182_21707" x1="316.867" y1="161.282" x2="331.897" y2="102.77" gradientUnits="userSpaceOnUse">
<stop stop-color="#01BC47"/>
<stop offset="0.630208" stop-color="#09C250"/>
<stop offset="1" stop-color="#00EB5F"/>
</linearGradient>
<linearGradient id="paint15_linear_3182_21707" x1="322.608" y1="161.467" x2="327.416" y2="100.166" gradientUnits="userSpaceOnUse">
<stop stop-color="#01BC47"/>
<stop offset="0.630208" stop-color="#09C250"/>
<stop offset="1" stop-color="#00EB5F"/>
</linearGradient>
<linearGradient id="paint16_linear_3182_21707" x1="591.552" y1="155.045" x2="603.196" y2="107.047" gradientUnits="userSpaceOnUse">
<stop stop-color="#01BC47"/>
<stop offset="0.630208" stop-color="#09C250"/>
<stop offset="1" stop-color="#00EB5F"/>
</linearGradient>
<linearGradient id="paint17_linear_3182_21707" x1="885.59" y1="149.807" x2="890.684" y2="111.207" gradientUnits="userSpaceOnUse">
<stop stop-color="#01BC47"/>
<stop offset="0.630208" stop-color="#09C250"/>
<stop offset="1" stop-color="#00EB5F"/>
</linearGradient>
<linearGradient id="paint18_linear_3182_21707" x1="841.835" y1="155.045" x2="850.269" y2="105.662" gradientUnits="userSpaceOnUse">
<stop stop-color="#01BC47"/>
<stop offset="0.630208" stop-color="#09C250"/>
<stop offset="1" stop-color="#00EB5F"/>
</linearGradient>
<linearGradient id="paint19_linear_3182_21707" x1="776.402" y1="149.807" x2="780.903" y2="111.058" gradientUnits="userSpaceOnUse">
<stop stop-color="#00762C"/>
<stop offset="0.630208" stop-color="#12A44A"/>
<stop offset="1" stop-color="#00EB5F"/>
</linearGradient>
<linearGradient id="paint20_linear_3182_21707" x1="623.756" y1="170.757" x2="642.767" y2="89.7438" gradientUnits="userSpaceOnUse">
<stop stop-color="#00762C"/>
<stop offset="0.630208" stop-color="#12A44A"/>
<stop offset="1" stop-color="#00EB5F"/>
</linearGradient>
<linearGradient id="paint21_linear_3182_21707" x1="715.53" y1="155.045" x2="723.657" y2="105.557" gradientUnits="userSpaceOnUse">
<stop stop-color="#01BC47"/>
<stop offset="0.630208" stop-color="#09C250"/>
<stop offset="1" stop-color="#00EB5F"/>
</linearGradient>
<linearGradient id="paint22_linear_3182_21707" x1="389.162" y1="251.713" x2="604.487" y2="35.15" gradientUnits="userSpaceOnUse">
<stop stop-color="#534AD8"/>
<stop offset="1" stop-color="#834C9D"/>
</linearGradient>
<linearGradient id="paint23_linear_3182_21707" x1="399.34" y1="247.58" x2="597.375" y2="42.7736" gradientUnits="userSpaceOnUse">
<stop stop-color="#25253A"/>
<stop offset="1" stop-color="#6437B2"/>
</linearGradient>
<linearGradient id="paint24_linear_3182_21707" x1="398.94" y1="242.263" x2="597.196" y2="42.8668" gradientUnits="userSpaceOnUse">
<stop stop-color="#534AD8"/>
<stop offset="1" stop-color="#834C9D"/>
</linearGradient>
<linearGradient id="paint25_linear_3182_21707" x1="405.594" y1="241.219" x2="592.684" y2="47.7333" gradientUnits="userSpaceOnUse">
<stop stop-color="#25253A"/>
<stop offset="1" stop-color="#6437B2"/>
</linearGradient>
<linearGradient id="paint26_linear_3182_21707" x1="405.595" y1="241.219" x2="592.685" y2="47.7333" gradientUnits="userSpaceOnUse">
<stop stop-color="#25253A"/>
<stop offset="1" stop-color="#6437B2"/>
</linearGradient>
<linearGradient id="paint27_linear_3182_21707" x1="455.976" y1="168.285" x2="579.658" y2="148.135" gradientUnits="userSpaceOnUse">
<stop stop-color="#DD14A5"/>
<stop offset="1" stop-color="#DD14A5" stop-opacity="0"/>
</linearGradient>
<linearGradient id="paint28_linear_3182_21707" x1="572.362" y1="143.27" x2="460.84" y2="99.8427" gradientUnits="userSpaceOnUse">
<stop stop-color="#C171FF"/>
<stop offset="1" stop-color="#534AD8" stop-opacity="0"/>
</linearGradient>
<linearGradient id="paint29_linear_3182_21707" x1="572.362" y1="143.271" x2="460.84" y2="99.8432" gradientUnits="userSpaceOnUse">
<stop stop-color="#54ECD0"/>
<stop offset="1" stop-color="#534AD8" stop-opacity="0"/>
</linearGradient>
<linearGradient id="paint30_linear_3182_21707" x1="512.5" y1="69.2697" x2="588.488" y2="142.448" gradientUnits="userSpaceOnUse">
<stop offset="0.445" stop-color="white" stop-opacity="0.11"/>
<stop offset="0.4451" stop-opacity="0"/>
</linearGradient>
</defs>
</svg>
