<?xml version="1.0" encoding="utf-8"?>
<svg xmlns="http://www.w3.org/2000/svg">
	<symbol id="home" viewBox="0 0 28 24" fill="none">
		<svg viewBox="0 0 28 24" fill="none" xmlns="http://www.w3.org/2000/svg">
			<path
				d="M14.0003 4.25073L20.667 10.2507V20.6641H18.0003V12.6641H10.0003V20.6641H7.33366V10.2507L14.0003 4.25073ZM14.0003 0.664062L0.666992 12.6641H4.66699V23.3307H12.667V15.3307H15.3337V23.3307H23.3337V12.6641H27.3337L14.0003 0.664062Z"
				fill="white" />
		</svg>
	</symbol>
	<symbol id="rozie_white_icon" viewBox="0 0 22 22" fill="none">
		<svg viewBox="0 0 22 22" fill="none" xmlns="http://www.w3.org/2000/svg">
			<g clip-path="url(#clip0_11474_1559)">
				<path
					d="M21.3742 16.1804C21.1799 16.8733 20.7644 17.4838 20.1911 17.9189C19.6178 18.3539 18.9181 18.5898 18.1984 18.5905C17.9326 18.5914 17.6677 18.5588 17.4101 18.4936C16.9783 18.405 16.574 18.2144 16.2308 17.9379C15.9161 17.7035 15.6458 17.4146 15.4328 17.085C15.3747 17.0042 15.3165 16.9202 15.2584 16.8297L13.475 13.9964C12.4767 12.381 11.3524 11.6379 10.2087 11.3633C9.03357 11.7624 7.77664 11.8579 6.55469 11.6411L10.1538 17.7957C13.1519 22.8551 21.245 22.0345 21.4485 16.0059C21.4259 16.0705 21.4001 16.1222 21.3742 16.1804Z"
					fill="url(#paint0_linear_11474_1559)" />
				<path
					d="M0.82959 4.40565V12.9381C0.82959 16.1204 3.93759 17.3643 5.76944 17.3643V3.49457C5.21979 3.304 4.64211 3.20681 4.06036 3.20703C2.87447 3.20582 1.72773 3.63127 0.82959 4.40565Z"
					fill="url(#paint1_linear_11474_1559)" />
				<path
					d="M10.1987 11.363C11.0897 11.0648 11.8723 10.5091 12.4474 9.76608C13.0224 9.02306 13.3642 8.12615 13.4294 7.18883C13.5328 3.17945 10.5573 0.824219 6.9679 0.824219C4.43497 0.824219 1.9279 2.27806 0.852051 4.37806C1.75019 3.60368 2.89694 3.17824 4.08282 3.17945C4.66457 3.17923 5.24225 3.27642 5.7919 3.46699C7.5042 4.07114 8.71897 5.60253 8.69959 7.80268C8.67376 8.56245 8.46642 9.30499 8.09489 9.96823C7.72337 10.6315 7.19846 11.1961 6.56405 11.615C7.77757 11.8368 9.02737 11.7501 10.1987 11.363Z"
					fill="white" />
				<path
					d="M18.1982 17.4081C18.6167 17.4081 19.0259 17.284 19.3739 17.0515C19.7219 16.8189 19.9931 16.4884 20.1533 16.1018C20.3134 15.7151 20.3553 15.2896 20.2737 14.8791C20.192 14.4686 19.9905 14.0915 19.6945 13.7956C19.3986 13.4996 19.0215 13.2981 18.611 13.2164C18.2005 13.1348 17.775 13.1767 17.3884 13.3369C17.0017 13.497 16.6712 13.7683 16.4387 14.1163C16.2061 14.4643 16.082 14.8734 16.082 15.2919C16.082 15.5698 16.1368 15.845 16.2431 16.1018C16.3495 16.3585 16.5053 16.5918 16.7018 16.7883C16.8983 16.9848 17.1316 17.1407 17.3884 17.247C17.6451 17.3534 17.9203 17.4081 18.1982 17.4081Z"
					fill="white" />
			</g>
			<defs>
				<linearGradient id="paint0_linear_11474_1559" x1="12.9484" y1="18.7165" x2="14.9191"
					y2="9.99344" gradientUnits="userSpaceOnUse">
					<stop offset="0.34" stop-color="white" />
					<stop offset="0.4" stop-color="#F6F6F6" />
					<stop offset="0.48" stop-color="#DEDDDD" />
					<stop offset="0.59" stop-color="#B6B5B5" />
					<stop offset="0.72" stop-color="#7F7D7E" />
					<stop offset="0.86" stop-color="#3A3738" />
					<stop offset="0.9" stop-color="#231F20" />
				</linearGradient>
				<linearGradient id="paint1_linear_11474_1559" x1="4.59344" y1="14.1852" x2="0.958821"
					y2="-1.88143" gradientUnits="userSpaceOnUse">
					<stop offset="0.25" stop-color="white" />
					<stop offset="0.31" stop-color="#F6F6F6" />
					<stop offset="0.41" stop-color="#DEDEDE" />
					<stop offset="0.53" stop-color="#B7B6B6" />
					<stop offset="0.66" stop-color="#817F7F" />
					<stop offset="0.82" stop-color="#3C393A" />
					<stop offset="0.87" stop-color="#231F20" />
				</linearGradient>
				<clipPath id="clip0_11474_1559">
					<rect width="21" height="21" fill="white" transform="translate(0.5 0.5)" />
				</clipPath>
			</defs>
		</svg>
	</symbol>
	<symbol id="thumbs_up" viewBox="0 0 30 26" fill="none">
		<svg viewBox="0 0 30 26" fill="none" xmlns="http://www.w3.org/2000/svg">
			<path
				d="M16.2655 0.669802L8.8788 8.05647C8.38547 8.5498 8.10547 9.2298 8.10547 9.93647V23.2565C8.10547 24.7231 9.30547 25.9231 10.7721 25.9231H22.7721C23.8388 25.9231 24.7988 25.2831 25.2255 24.3098L29.5721 14.1631C30.6921 11.5231 28.7588 8.5898 25.8921 8.5898H18.3588L19.6255 2.48314C19.7588 1.81647 19.5588 1.13647 19.0788 0.656469C18.2921 -0.116864 17.0388 -0.116864 16.2655 0.669802ZM2.77214 25.9231C4.2388 25.9231 5.4388 24.7231 5.4388 23.2565V12.5898C5.4388 11.1231 4.2388 9.92314 2.77214 9.92314C1.30547 9.92314 0.105469 11.1231 0.105469 12.5898V23.2565C0.105469 24.7231 1.30547 25.9231 2.77214 25.9231Z"
				fill="white" />
		</svg>
	</symbol>
	<symbol id="thumbs_down" viewBox="0 0 30 26" fill="none">
		<svg viewBox="0 0 30 26" fill="none" xmlns="http://www.w3.org/2000/svg">
			<path
				d="M13.7308 25.3315L21.1042 17.9448C21.5975 17.4515 21.8775 16.7715 21.8775 16.0648V2.74479C21.8775 1.27813 20.6775 0.078125 19.2108 0.078125H7.22415C6.15748 0.078125 5.19748 0.718125 4.78415 1.69146L0.437483 11.8381C-0.69585 14.4781 1.23748 17.4115 4.10415 17.4115H11.6375L10.3708 23.5181C10.2375 24.1848 10.4375 24.8648 10.9175 25.3448C11.7042 26.1181 12.9575 26.1181 13.7308 25.3315ZM27.2241 0.078125C25.7575 0.078125 24.5575 1.27813 24.5575 2.74479V13.4115C24.5575 14.8781 25.7575 16.0781 27.2241 16.0781C28.6908 16.0781 29.8908 14.8781 29.8908 13.4115V2.74479C29.8908 1.27813 28.6908 0.078125 27.2241 0.078125Z"
				fill="white" />
		</svg>
	</symbol>
	<symbol id="star" viewBox="0 0 28 27" fill="none">
		<svg viewBox="0 0 28 27" fill="none" xmlns="http://www.w3.org/2000/svg">
			<path
				d="M14.0025 21.1188L22.1053 26.3127L20.1724 16.8838L27.62 10.7759L18.0588 9.70409L14.5521 0.766173L10.5682 9.50181L0.963048 10.0561L8.07015 16.557L5.63126 25.8678L14.0025 21.1188Z"
				fill="white" />
		</svg>
	</symbol>
	<symbol id="comment" viewBox="0 0 28 28" fill="none">
		<svg viewBox="0 0 28 28" fill="none" xmlns="http://www.w3.org/2000/svg">
			<path
				d="M24.667 20.8907L23.107 19.3307H3.33366V3.33073H24.667V20.8907ZM24.667 0.664062H3.33366C1.86699 0.664062 0.666992 1.86406 0.666992 3.33073V19.3307C0.666992 20.7974 1.86699 21.9974 3.33366 21.9974H22.0003L27.3337 27.3307V3.33073C27.3337 1.86406 26.1337 0.664062 24.667 0.664062Z"
				fill="white" />
		</svg>
	</symbol>
	<symbol id="close" viewBox="0 0 12 12" fill="none">
		<svg viewBox="0 0 12 12" fill="none" xmlns="http://www.w3.org/2000/svg">
			<path d="M10.763 1.26565L1.13181 10.8343" stroke="#475258" stroke-linecap="round"
				stroke-linejoin="round" />
			<path d="M1.16309 1.23438L10.7318 10.8656" stroke="#475258" stroke-linecap="round"
				stroke-linejoin="round" />
		</svg>
	</symbol>
	<symbol id="pause_outlined" viewBox="0 0 17 16" fill="none">
		<svg viewBox="0 0 17 16" fill="none" xmlns="http://www.w3.org/2000/svg">
			<path d="M11.1667 5.33333V10.6667H5.83333V5.33333H11.1667ZM12.5 4H4.5V12H12.5V4Z"
				fill="url(#paint0_linear_12509_10708)" />
			<defs>
				<linearGradient id="paint0_linear_12509_10708" x1="2.52" y1="13.78" x2="12.96" y2="3.28"
					gradientUnits="userSpaceOnUse">
					<stop stop-color="#2C22C0" />
					<stop offset="1" stop-color="#8F30BC" />
				</linearGradient>
			</defs>
		</svg>

	</symbol>
	<symbol id="category_outlined" viewBox="0 0 16 16">
		<svg width="16" height="16" viewBox="0 0 16 16" xmlns="http://www.w3.org/2000/svg">
			<path
				d="M7.66675 1.3335L4.00008 7.3335H11.3334L7.66675 1.3335ZM7.66675 3.8935L8.95341 6.00016H6.37341L7.66675 3.8935ZM11.3334 8.66683C9.67341 8.66683 8.33341 10.0068 8.33341 11.6668C8.33341 13.3268 9.67341 14.6668 11.3334 14.6668C12.9934 14.6668 14.3334 13.3268 14.3334 11.6668C14.3334 10.0068 12.9934 8.66683 11.3334 8.66683ZM11.3334 13.3335C10.4134 13.3335 9.66675 12.5868 9.66675 11.6668C9.66675 10.7468 10.4134 10.0002 11.3334 10.0002C12.2534 10.0002 13.0001 10.7468 13.0001 11.6668C13.0001 12.5868 12.2534 13.3335 11.3334 13.3335ZM1.66675 14.3335H7.00008V9.00016H1.66675V14.3335ZM3.00008 10.3335H5.66675V13.0002H3.00008V10.3335Z"
			/>
		</svg>

	</symbol>
	<symbol id="event_note" viewBox="0 0 20 20">
		<svg viewBox="0 0 20 20" xmlns="http://www.w3.org/2000/svg">
			<g id="event_note">
				<path id="Vector"
					d="M15.8333 3.33317H15V1.6665H13.3333V3.33317H6.66667V1.6665H5V3.33317H4.16667C3.25 3.33317 2.5 4.08317 2.5 4.99984V16.6665C2.5 17.5832 3.25 18.3332 4.16667 18.3332H15.8333C16.75 18.3332 17.5 17.5832 17.5 16.6665V4.99984C17.5 4.08317 16.75 3.33317 15.8333 3.33317ZM15.8333 16.6665H4.16667V8.33317H15.8333V16.6665ZM4.16667 6.6665V4.99984H15.8333V6.6665H4.16667ZM5.83333 9.99984H14.1667V11.6665H5.83333V9.99984ZM5.83333 13.3332H11.6667V14.9998H5.83333V13.3332Z"
				/>
			</g>
		</svg>
	</symbol>
	<symbol id="record_voice_over" viewBox="0 0 20 20">
		<svg viewBox="0 0 20 20" xmlns="http://www.w3.org/2000/svg">
			<g id="record_voice_over">
				<path id="Vector"
					d="M7.50041 11.2502C9.34207 11.2502 10.8337 9.7585 10.8337 7.91683C10.8337 6.07516 9.34207 4.5835 7.50041 4.5835C5.65874 4.5835 4.16707 6.07516 4.16707 7.91683C4.16707 9.7585 5.65874 11.2502 7.50041 11.2502ZM7.50041 6.25016C8.41707 6.25016 9.16707 7.00016 9.16707 7.91683C9.16707 8.8335 8.41707 9.5835 7.50041 9.5835C6.58374 9.5835 5.83374 8.8335 5.83374 7.91683C5.83374 7.00016 6.58374 6.25016 7.50041 6.25016ZM7.50041 12.9168C5.27541 12.9168 0.83374 14.0335 0.83374 16.2502V17.9168H14.1671V16.2502C14.1671 14.0335 9.72541 12.9168 7.50041 12.9168ZM2.50041 16.2502C2.68374 15.6502 5.25874 14.5835 7.50041 14.5835C9.75041 14.5835 12.3337 15.6585 12.5004 16.2502H2.50041ZM12.5671 6.29183C13.2671 7.27516 13.2671 8.55016 12.5671 9.5335L13.9671 10.9418C15.6504 9.2585 15.6504 6.71683 13.9671 4.8835L12.5671 6.29183ZM16.7254 2.0835L15.3671 3.44183C17.6754 5.9585 17.6754 9.74183 15.3671 12.3918L16.7254 13.7502C19.9754 10.5085 19.9837 5.4585 16.7254 2.0835Z"
				/>
			</g>
		</svg>

	</symbol>
</svg>
